<?xml version="1.0" encoding="UTF-8" standalone="no"?><svg xmlns="http://www.w3.org/2000/svg" xmlns:xlink="http://www.w3.org/1999/xlink" height="660" version="1.1" width="1684"><defs/><g><g transform="translate(-38,-70) scale(1,1)"><rect fill="#C0C0C0" height="162" opacity="0.2" stroke="none" width="184" x="215" y="127"/></g><g transform="translate(-38,-70) scale(1,1)"><rect fill="#ffffff" height="162" stroke="none" width="184" x="208" y="120"/></g><g transform="translate(-38,-70) scale(1,1)"><path d="M 208 120 L 392 120 L 392 282 L 208 282 L 208 120 Z Z" fill="none" stroke="#000000" stroke-miterlimit="10"/></g><g transform="translate(-38,-70) scale(1,1)"><path d="M 208 145 L 392 145" fill="none" stroke="#000000" stroke-miterlimit="10"/></g><g transform="translate(-38,-70) scale(1,1)"><path d="M 208 198 L 392 198" fill="none" stroke="#000000" stroke-miterlimit="10"/></g><g transform="translate(-38,-70) scale(1,1)"><g><path fill="none" stroke="none"/><text fill="#000000" font-family="Arial" font-size="13px" font-style="italic" font-weight="bold" stroke="none" text-decoration="none" x="247.65087890625" y="139.5">BenchmarkWrapper</text></g></g><g transform="translate(-38,-70) scale(1,1)"><g><path fill="none" stroke="none"/><text fill="#000000" font-family="Arial" font-size="13px" font-style="normal" font-weight="normal" stroke="none" text-decoration="none" x="213" y="162.5">-settings: dict</text></g></g><g transform="translate(-38,-70) scale(1,1)"><g><path fill="none" stroke="none"/><text fill="#000000" font-family="Arial" font-size="13px" font-style="normal" font-weight="normal" stroke="none" text-decoration="none" x="213" y="177.5">+presets: dict</text></g></g><g transform="translate(-38,-70) scale(1,1)"><g><path fill="none" stroke="none"/><text fill="#000000" font-family="Arial" font-size="13px" font-style="normal" font-weight="normal" stroke="none" text-decoration="none" x="213" y="192.5">+gpuUsage: float</text></g></g><g transform="translate(-38,-70) scale(1,1)"><g><path fill="none" stroke="none"/><text fill="#000000" font-family="Arial" font-size="13px" font-style="normal" font-weight="normal" stroke="none" text-decoration="none" x="213" y="217.5">+startBenchmark()</text></g></g><g transform="translate(-38,-70) scale(1,1)"><g><path fill="none" stroke="none"/><text fill="#000000" font-family="Arial" font-size="13px" font-style="normal" font-weight="normal" stroke="none" text-decoration="none" x="213" y="232.5">+benchmarkStatus()</text></g></g><g transform="translate(-38,-70) scale(1,1)"><g><path fill="none" stroke="none"/><text fill="#000000" font-family="Arial" font-size="13px" font-style="normal" font-weight="normal" stroke="none" text-decoration="none" x="213" y="247.5">+stopBenchmark()</text></g></g><g transform="translate(-38,-70) scale(1,1)"><g><path fill="none" stroke="none"/><text fill="#000000" font-family="Arial" font-size="13px" font-style="normal" font-weight="normal" stroke="none" text-decoration="none" x="213" y="262.5">+getBenchmarkConfig()</text></g></g><g transform="translate(-38,-70) scale(1,1)"><rect fill="#C0C0C0" height="136" opacity="0.2" stroke="none" width="160" x="55" y="351"/></g><g transform="translate(-38,-70) scale(1,1)"><rect fill="#ffffff" height="136" stroke="none" width="160" x="48" y="344"/></g><g transform="translate(-38,-70) scale(1,1)"><path d="M 48 344 L 208 344 L 208 480 L 48 480 L 48 344 Z Z" fill="none" stroke="#000000" stroke-miterlimit="10"/></g><g transform="translate(-38,-70) scale(1,1)"><path d="M 48 369 L 208 369" fill="none" stroke="#000000" stroke-miterlimit="10"/></g><g transform="translate(-38,-70) scale(1,1)"><path d="M 48 379 L 208 379" fill="none" stroke="#000000" stroke-miterlimit="10"/></g><g transform="translate(-38,-70) scale(1,1)"><g><path fill="none" stroke="none"/><text fill="#000000" font-family="Arial" font-size="13px" font-style="normal" font-weight="bold" stroke="none" text-decoration="none" x="105.595947265625" y="363.5">Heaven</text></g></g><g transform="translate(-38,-70) scale(1,1)"><path d="M 184 343 L 233 283" fill="none" stroke="#000000" stroke-miterlimit="10"/></g><g transform="translate(-38,-70) scale(1,1)"><path d="M 226.66432712759834 304.06796737357246 L 233 283 L 213.6227001528751 293.41730534421515" fill="#FFFFFF" stroke="none"/></g><g transform="translate(-38,-70) scale(1,1)"><path d="M 226.66432712759834 304.06796737357246 L 233 283 L 213.6227001528751 293.41730534421515 L 226.66432712759834 304.06796737357246" fill="none" stroke="#000000" stroke-miterlimit="10"/></g><g transform="translate(-38,-70) scale(1,1)"><rect fill="#C0C0C0" height="136" opacity="0.2" stroke="none" width="160" x="231" y="351"/></g><g transform="translate(-38,-70) scale(1,1)"><rect fill="#ffffff" height="136" stroke="none" width="160" x="224" y="344"/></g><g transform="translate(-38,-70) scale(1,1)"><path d="M 224 344 L 384 344 L 384 480 L 224 480 L 224 344 Z Z" fill="none" stroke="#000000" stroke-miterlimit="10"/></g><g transform="translate(-38,-70) scale(1,1)"><path d="M 224 369 L 384 369" fill="none" stroke="#000000" stroke-miterlimit="10"/></g><g transform="translate(-38,-70) scale(1,1)"><path d="M 224 392 L 384 392" fill="none" stroke="#000000" stroke-miterlimit="10"/></g><g transform="translate(-38,-70) scale(1,1)"><g><path fill="none" stroke="none"/><text fill="#000000" font-family="Arial" font-size="13px" font-style="normal" font-weight="bold" stroke="none" text-decoration="none" x="283.049560546875" y="363.5">MLPerf</text></g></g><g transform="translate(-38,-70) scale(1,1)"><g><path fill="none" stroke="none"/><text fill="#000000" font-family="Arial" font-size="13px" font-style="normal" font-weight="normal" stroke="none" text-decoration="none" x="229" y="386.5">+targetGpu: UUID</text></g></g><g transform="translate(-38,-70) scale(1,1)"><rect fill="#C0C0C0" height="136" opacity="0.2" stroke="none" width="159.96630859375" x="415" y="351"/></g><g transform="translate(-38,-70) scale(1,1)"><rect fill="#ffffff" height="136" stroke="none" width="159.96630859375" x="408" y="344"/></g><g transform="translate(-38,-70) scale(1,1)"><path d="M 408 344 L 567.96630859375 344 L 567.96630859375 480 L 408 480 L 408 344 Z Z" fill="none" stroke="#000000" stroke-miterlimit="10"/></g><g transform="translate(-38,-70) scale(1,1)"><path d="M 408 369 L 567.96630859375 369" fill="none" stroke="#000000" stroke-miterlimit="10"/></g><g transform="translate(-38,-70) scale(1,1)"><path d="M 408 379 L 567.96630859375 379" fill="none" stroke="#000000" stroke-miterlimit="10"/></g><g transform="translate(-38,-70) scale(1,1)"><g><path fill="none" stroke="none"/><text fill="#000000" font-family="Arial" font-size="13px" font-style="normal" font-weight="bold" stroke="none" text-decoration="none" x="465.22998046875" y="363.5">3DMark</text></g></g><g transform="translate(-38,-70) scale(1,1)"><path d="M 303 343 L 302 283" fill="none" stroke="#000000" stroke-miterlimit="10"/></g><g transform="translate(-38,-70) scale(1,1)"><path d="M 310.7565752340607 303.18222956390684 L 302 283 L 293.9208423438724 303.46282511207664" fill="#FFFFFF" stroke="none"/></g><g transform="translate(-38,-70) scale(1,1)"><path d="M 310.7565752340607 303.18222956390684 L 302 283 L 293.9208423438724 303.46282511207664 L 310.7565752340607 303.18222956390684" fill="none" stroke="#000000" stroke-miterlimit="10"/></g><g transform="translate(-38,-70) scale(1,1)"><path d="M 426 343 L 373 283" fill="none" stroke="#000000" stroke-miterlimit="10"/></g><g transform="translate(-38,-70) scale(1,1)"><path d="M 392.76592778495655 292.6596117313215 L 373 283 L 380.1462446143398 303.8069985320329" fill="#FFFFFF" stroke="none"/></g><g transform="translate(-38,-70) scale(1,1)"><path d="M 392.76592778495655 292.6596117313215 L 373 283 L 380.1462446143398 303.8069985320329 L 392.76592778495655 292.6596117313215" fill="none" stroke="#000000" stroke-miterlimit="10"/></g><g transform="translate(-38,-70) scale(1,1)"><rect fill="#C0C0C0" height="176" opacity="0.2" stroke="none" width="296" x="679" y="103"/></g><g transform="translate(-38,-70) scale(1,1)"><rect fill="#ffffff" height="176" stroke="none" width="296" x="672" y="96"/></g><g transform="translate(-38,-70) scale(1,1)"><path d="M 672 96 L 968 96 L 968 272 L 672 272 L 672 96 Z Z" fill="none" stroke="#000000" stroke-miterlimit="10"/></g><g transform="translate(-38,-70) scale(1,1)"><path d="M 672 121 L 968 121" fill="none" stroke="#000000" stroke-miterlimit="10"/></g><g transform="translate(-38,-70) scale(1,1)"><path d="M 672 144 L 968 144" fill="none" stroke="#000000" stroke-miterlimit="10"/></g><g transform="translate(-38,-70) scale(1,1)"><g><path fill="none" stroke="none"/><text fill="#000000" font-family="Arial" font-size="13px" font-style="normal" font-weight="bold" stroke="none" text-decoration="none" x="763.635986328125" y="115.5">BenchmarkingSuite</text></g></g><g transform="translate(-38,-70) scale(1,1)"><g><path fill="none" stroke="none"/><text fill="#000000" font-family="Arial" font-size="13px" font-style="normal" font-weight="normal" stroke="none" text-decoration="none" x="677" y="138.5">+benchmarkArray: BenchmarkWrapper</text></g></g><g transform="translate(-38,-70) scale(1,1)"><g><path fill="none" stroke="none"/><text fill="#000000" font-family="Arial" font-size="13px" font-style="normal" font-weight="normal" stroke="none" text-decoration="none" x="677" y="161.5">+getBenchmarkConfig()</text></g></g><g transform="translate(-38,-70) scale(1,1)"><g><path fill="none" stroke="none"/><text fill="#000000" font-family="Arial" font-size="13px" font-style="normal" font-weight="normal" stroke="none" text-decoration="none" x="677" y="176.5">+startBenchmark()</text></g></g><g transform="translate(-38,-70) scale(1,1)"><g><path fill="none" stroke="none"/><text fill="#000000" font-family="Arial" font-size="13px" font-style="normal" font-weight="normal" stroke="none" text-decoration="none" x="677" y="191.5">+benchmarkStatus()</text></g></g><g transform="translate(-38,-70) scale(1,1)"><g><path fill="none" stroke="none"/><text fill="#000000" font-family="Arial" font-size="13px" font-style="normal" font-weight="normal" stroke="none" text-decoration="none" x="677" y="206.5">+stopBenchmark()</text></g></g><g transform="translate(-38,-70) scale(1,1)"><path d="M 1068.9990234375 162.5 C 1068.9990234375 156.1487248 1074.1477482375 151 1080.4990234375 151 C 1086.8502986375 151 1091.9990234375 156.1487248 1091.9990234375 162.5 C 1091.9990234375 168.8512752 1086.8502986375 174 1080.4990234375 174 C 1074.1477482375 174 1068.9990234375 168.8512752 1068.9990234375 162.5 Z" fill="#C0C0C0" opacity="0.2" stroke="none"/></g><g transform="translate(-38,-70) scale(1,1)"><path d="M 1061.9990234375 155.5 C 1061.9990234375 149.1487248 1067.1477482375 144 1073.4990234375 144 C 1079.8502986375 144 1084.9990234375 149.1487248 1084.9990234375 155.5 C 1084.9990234375 161.8512752 1079.8502986375 167 1073.4990234375 167 C 1067.1477482375 167 1061.9990234375 161.8512752 1061.9990234375 155.5 Z" fill="#ffffff" stroke="none"/></g><g transform="translate(-38,-70) scale(1,1)"><path d="M 1061.9990234375 155.5 C 1061.9990234375 149.1487248 1067.1477482375 144 1073.4990234375 144 C 1079.8502986375 144 1084.9990234375 149.1487248 1084.9990234375 155.5 C 1084.9990234375 161.8512752 1079.8502986375 167 1073.4990234375 167 C 1067.1477482375 167 1061.9990234375 161.8512752 1061.9990234375 155.5 Z" fill="none" stroke="#000000" stroke-miterlimit="10"/></g><g transform="translate(-38,-70) scale(1,1)"><g><path fill="none" stroke="none"/><text fill="#000000" font-family="Arial" font-size="13px" font-style="normal" font-weight="bold" stroke="none" text-decoration="none" x="1009.917724609375" y="186.5">System Specifications</text></g></g><g transform="translate(-38,-70) scale(1,1)"><path d="M 1070.1962890625 226.5 C 1070.1962890625 220.1487248 1075.3450138625 215 1081.6962890625 215 C 1088.0475642625 215 1093.1962890625 220.1487248 1093.1962890625 226.5 C 1093.1962890625 232.8512752 1088.0475642625 238 1081.6962890625 238 C 1075.3450138625 238 1070.1962890625 232.8512752 1070.1962890625 226.5 Z" fill="#C0C0C0" opacity="0.2" stroke="none"/></g><g transform="translate(-38,-70) scale(1,1)"><path d="M 1063.1962890625 219.5 C 1063.1962890625 213.1487248 1068.3450138625 208 1074.6962890625 208 C 1081.0475642625 208 1086.1962890625 213.1487248 1086.1962890625 219.5 C 1086.1962890625 225.8512752 1081.0475642625 231 1074.6962890625 231 C 1068.3450138625 231 1063.1962890625 225.8512752 1063.1962890625 219.5 Z" fill="#ffffff" stroke="none"/></g><g transform="translate(-38,-70) scale(1,1)"><path d="M 1063.1962890625 219.5 C 1063.1962890625 213.1487248 1068.3450138625 208 1074.6962890625 208 C 1081.0475642625 208 1086.1962890625 213.1487248 1086.1962890625 219.5 C 1086.1962890625 225.8512752 1081.0475642625 231 1074.6962890625 231 C 1068.3450138625 231 1063.1962890625 225.8512752 1063.1962890625 219.5 Z" fill="none" stroke="#000000" stroke-miterlimit="10"/></g><g transform="translate(-38,-70) scale(1,1)"><g><path fill="none" stroke="none"/><text fill="#000000" font-family="Arial" font-size="13px" font-style="normal" font-weight="bold" stroke="none" text-decoration="none" x="1024.1181640625" y="250.5">Processes Status</text></g></g><g transform="translate(-38,-70) scale(1,1)"><path d="M 1067.8857421875 290.5 C 1067.8857421875 284.1487248 1073.0344669875 279 1079.3857421875 279 C 1085.7370173875 279 1090.8857421875 284.1487248 1090.8857421875 290.5 C 1090.8857421875 296.8512752 1085.7370173875 302 1079.3857421875 302 C 1073.0344669875 302 1067.8857421875 296.8512752 1067.8857421875 290.5 Z" fill="#C0C0C0" opacity="0.2" stroke="none"/></g><g transform="translate(-38,-70) scale(1,1)"><path d="M 1060.8857421875 283.5 C 1060.8857421875 277.1487248 1066.0344669875 272 1072.3857421875 272 C 1078.7370173875 272 1083.8857421875 277.1487248 1083.8857421875 283.5 C 1083.8857421875 289.8512752 1078.7370173875 295 1072.3857421875 295 C 1066.0344669875 295 1060.8857421875 289.8512752 1060.8857421875 283.5 Z" fill="#ffffff" stroke="none"/></g><g transform="translate(-38,-70) scale(1,1)"><path d="M 1060.8857421875 283.5 C 1060.8857421875 277.1487248 1066.0344669875 272 1072.3857421875 272 C 1078.7370173875 272 1083.8857421875 277.1487248 1083.8857421875 283.5 C 1083.8857421875 289.8512752 1078.7370173875 295 1072.3857421875 295 C 1066.0344669875 295 1060.8857421875 289.8512752 1060.8857421875 283.5 Z" fill="none" stroke="#000000" stroke-miterlimit="10"/></g><g transform="translate(-38,-70) scale(1,1)"><g><path fill="none" stroke="none"/><text fill="#000000" font-family="Arial" font-size="13px" font-style="normal" font-weight="bold" stroke="none" text-decoration="none" x="1024.337158203125" y="314.5">Task Completion</text></g></g><g transform="translate(-38,-70) scale(1,1)"><path d="M 1069.128662109375 98.5 C 1069.128662109375 92.1487248 1074.277386909375 87 1080.628662109375 87 C 1086.979937309375 87 1092.128662109375 92.1487248 1092.128662109375 98.5 C 1092.128662109375 104.8512752 1086.979937309375 110 1080.628662109375 110 C 1074.277386909375 110 1069.128662109375 104.8512752 1069.128662109375 98.5 Z" fill="#C0C0C0" opacity="0.2" stroke="none"/></g><g transform="translate(-38,-70) scale(1,1)"><path d="M 1062.128662109375 91.5 C 1062.128662109375 85.1487248 1067.277386909375 80 1073.628662109375 80 C 1079.979937309375 80 1085.128662109375 85.1487248 1085.128662109375 91.5 C 1085.128662109375 97.8512752 1079.979937309375 103 1073.628662109375 103 C 1067.277386909375 103 1062.128662109375 97.8512752 1062.128662109375 91.5 Z" fill="#ffffff" stroke="none"/></g><g transform="translate(-38,-70) scale(1,1)"><path d="M 1062.128662109375 91.5 C 1062.128662109375 85.1487248 1067.277386909375 80 1073.628662109375 80 C 1079.979937309375 80 1085.128662109375 85.1487248 1085.128662109375 91.5 C 1085.128662109375 97.8512752 1079.979937309375 103 1073.628662109375 103 C 1067.277386909375 103 1062.128662109375 97.8512752 1062.128662109375 91.5 Z" fill="none" stroke="#000000" stroke-miterlimit="10"/></g><g transform="translate(-38,-70) scale(1,1)"><g><path fill="none" stroke="none"/><text fill="#000000" font-family="Arial" font-size="13px" font-style="normal" font-weight="bold" stroke="none" text-decoration="none" x="1032.070556640625" y="122.5">Logger Output</text></g></g><g transform="translate(-38,-70) scale(1,1)"><path d="M 969 137 L 1023 120" fill="none" stroke="#000000" stroke-miterlimit="10"/></g><g transform="translate(-38,-70) scale(1,1)"><path d="M 969 175 L 999 173" fill="none" stroke="#000000" stroke-miterlimit="10"/></g><g transform="translate(-38,-70) scale(1,1)"><path d="M 969 212 L 1015 221" fill="none" stroke="#000000" stroke-miterlimit="10"/></g><g transform="translate(-38,-70) scale(1,1)"><path d="M 969 250 L 1016 271" fill="none" stroke="#000000" stroke-miterlimit="10"/></g><g transform="translate(-38,-70) scale(1,1)"><rect fill="#C0C0C0" height="130" opacity="0.2" stroke="none" width="168" x="1335" y="103"/></g><g transform="translate(-38,-70) scale(1,1)"><rect fill="#ffffff" height="130" stroke="none" width="168" x="1328" y="96"/></g><g transform="translate(-38,-70) scale(1,1)"><path d="M 1328 96 L 1496 96 L 1496 226 L 1328 226 L 1328 96 Z Z" fill="none" stroke="#000000" stroke-miterlimit="10"/></g><g transform="translate(-38,-70) scale(1,1)"><path d="M 1328 121 L 1496 121" fill="none" stroke="#000000" stroke-miterlimit="10"/></g><g transform="translate(-38,-70) scale(1,1)"><path d="M 1328 131 L 1496 131" fill="none" stroke="#000000" stroke-miterlimit="10"/></g><g transform="translate(-38,-70) scale(1,1)"><g><path fill="none" stroke="none"/><text fill="#000000" font-family="Arial" font-size="13px" font-style="normal" font-weight="bold" stroke="none" text-decoration="none" x="1388.87548828125" y="115.5">Listener</text></g></g><g transform="translate(-38,-70) scale(1,1)"><g><path fill="none" stroke="none"/><text fill="#000000" font-family="Arial" font-size="13px" font-style="normal" font-weight="normal" stroke="none" text-decoration="none" x="1333" y="148.5">+getLoggerOutput()</text></g></g><g transform="translate(-38,-70) scale(1,1)"><g><path fill="none" stroke="none"/><text fill="#000000" font-family="Arial" font-size="13px" font-style="normal" font-weight="normal" stroke="none" text-decoration="none" x="1333" y="163.5">+getSysSpecs()</text></g></g><g transform="translate(-38,-70) scale(1,1)"><g><path fill="none" stroke="none"/><text fill="#000000" font-family="Arial" font-size="13px" font-style="normal" font-weight="normal" stroke="none" text-decoration="none" x="1333" y="178.5">+getPsStatus()</text></g></g><g transform="translate(-38,-70) scale(1,1)"><g><path fill="none" stroke="none"/><text fill="#000000" font-family="Arial" font-size="13px" font-style="normal" font-weight="normal" stroke="none" text-decoration="none" x="1333" y="193.5">+getTaskStatus()</text></g></g><g transform="translate(-38,-70) scale(1,1)"><path d="M 1228.2702702702702 264.1216216216216 A 11.5 11.5 0 0 1 1235.7297297297298 285.8783783783784" fill="none" stroke="#000000" stroke-miterlimit="10"/></g><g transform="translate(-38,-70) scale(1,1)"><g><path fill="none" stroke="none"/><text fill="#000000" font-family="Arial" font-size="13px" font-style="normal" font-weight="bold" stroke="none" text-decoration="none" x="1184.337158203125" y="306.5">Task Completion</text></g></g><g transform="translate(-38,-70) scale(1,1)"><path d="M 1327 221 L 1243.8857421875 270.92488839285716" fill="none" stroke="#000000" stroke-miterlimit="10"/></g><g transform="translate(-38,-70) scale(1,1)"><path d="M 1224.1094116459883 207.65646987593036 A 11.5 11.5 0 0 1 1227.8905883540117 230.34353012406964" fill="none" stroke="#000000" stroke-miterlimit="10"/></g><g transform="translate(-38,-70) scale(1,1)"><g><path fill="none" stroke="none"/><text fill="#000000" font-family="Arial" font-size="13px" font-style="normal" font-weight="bold" stroke="none" text-decoration="none" x="1176.1181640625" y="250.5">Processes Status</text></g></g><g transform="translate(-38,-70) scale(1,1)"><path d="M 1327 193 L 1238.1962890625 216.96728515625" fill="none" stroke="#000000" stroke-miterlimit="10"/></g><g transform="translate(-38,-70) scale(1,1)"><path d="M 1226.5198827810468 143.6008791421497 A 11.5 11.5 0 0 1 1223.4801172189534 166.3991208578503" fill="none" stroke="#000000" stroke-miterlimit="10"/></g><g transform="translate(-38,-70) scale(1,1)"><g><path fill="none" stroke="none"/><text fill="#000000" font-family="Arial" font-size="13px" font-style="normal" font-weight="bold" stroke="none" text-decoration="none" x="1161.917724609375" y="186.5">System Specifications</text></g></g><g transform="translate(-38,-70) scale(1,1)"><path d="M 1327 164 L 1236.9990234375 156.59986979166666" fill="none" stroke="#000000" stroke-miterlimit="10"/></g><g transform="translate(-38,-70) scale(1,1)"><path d="M 1230.684475581617 81.00316363232854 A 11.5 11.5 0 0 1 1219.315524418383 100.99683636767146" fill="none" stroke="#000000" stroke-miterlimit="10"/></g><g transform="translate(-38,-70) scale(1,1)"><g><path fill="none" stroke="none"/><text fill="#000000" font-family="Arial" font-size="13px" font-style="normal" font-weight="bold" stroke="none" text-decoration="none" x="1184.070556640625" y="122.5">Logger Output</text></g></g><g transform="translate(-38,-70) scale(1,1)"><path d="M 1327 135 L 1237.128662109375 97.89669021905637" fill="none" stroke="#000000" stroke-miterlimit="10"/></g><g transform="translate(-38,-70) scale(1,1)"><path d="M 393 198 L 671 189" fill="none" stroke="#000000" stroke-miterlimit="10"/></g><g transform="translate(-38,-70) scale(1,1)"><g><path fill="none" stroke="none"/><text fill="#000000" font-family="Arial" font-size="13px" font-style="normal" font-weight="normal" stroke="none" text-decoration="none" x="405.5" y="215.5">1..*</text></g></g><g transform="translate(-38,-70) scale(1,1)"><g><path fill="none" stroke="none"/><text fill="#000000" font-family="Arial" font-size="13px" font-style="normal" font-weight="normal" stroke="none" text-decoration="none" x="645.5" y="208.5">1</text></g></g><g transform="translate(-38,-70) scale(1,1)"><rect fill="#C0C0C0" height="120" opacity="0.2" stroke="none" width="168" x="1151" y="607"/></g><g transform="translate(-38,-70) scale(1,1)"><rect fill="#ffffff" height="120" stroke="none" width="168" x="1144" y="600"/></g><g transform="translate(-38,-70) scale(1,1)"><path d="M 1144 600 L 1312 600 L 1312 720 L 1144 720 L 1144 600 Z Z" fill="none" stroke="#000000" stroke-miterlimit="10"/></g><g transform="translate(-38,-70) scale(1,1)"><path d="M 1144 625 L 1312 625" fill="none" stroke="#000000" stroke-miterlimit="10"/></g><g transform="translate(-38,-70) scale(1,1)"><path d="M 1144 635 L 1312 635" fill="none" stroke="#000000" stroke-miterlimit="10"/></g><g transform="translate(-38,-70) scale(1,1)"><g><path fill="none" stroke="none"/><text fill="#000000" font-family="Arial" font-size="13px" font-style="normal" font-weight="bold" stroke="none" text-decoration="none" x="1195.1318359375" y="619.5">DisplayGUI</text></g></g><g transform="translate(-38,-70) scale(1,1)"><g><path fill="none" stroke="none"/><text fill="#000000" font-family="Arial" font-size="13px" font-style="normal" font-weight="normal" stroke="none" text-decoration="none" x="1149" y="652.5">+renderOutput()</text></g></g><g transform="translate(-38,-70) scale(1,1)"><g><path fill="none" stroke="none"/><text fill="#000000" font-family="Arial" font-size="13px" font-style="normal" font-weight="normal" stroke="none" text-decoration="none" x="1149" y="667.5">+inputParser()</text></g></g><g transform="translate(-38,-70) scale(1,1)"><rect fill="#C0C0C0" height="120" opacity="0.2" stroke="none" width="168" x="1335" y="607"/></g><g transform="translate(-38,-70) scale(1,1)"><rect fill="#ffffff" height="120" stroke="none" width="168" x="1328" y="600"/></g><g transform="translate(-38,-70) scale(1,1)"><path d="M 1328 600 L 1496 600 L 1496 720 L 1328 720 L 1328 600 Z Z" fill="none" stroke="#000000" stroke-miterlimit="10"/></g><g transform="translate(-38,-70) scale(1,1)"><path d="M 1328 625 L 1496 625" fill="none" stroke="#000000" stroke-miterlimit="10"/></g><g transform="translate(-38,-70) scale(1,1)"><path d="M 1328 635 L 1496 635" fill="none" stroke="#000000" stroke-miterlimit="10"/></g><g transform="translate(-38,-70) scale(1,1)"><g><path fill="none" stroke="none"/><text fill="#000000" font-family="Arial" font-size="13px" font-style="normal" font-weight="bold" stroke="none" text-decoration="none" x="1387.431396484375" y="619.5">Daemon</text></g></g><g transform="translate(-38,-70) scale(1,1)"><rect fill="#C0C0C0" height="120" opacity="0.2" stroke="none" width="192" x="1527" y="607"/></g><g transform="translate(-38,-70) scale(1,1)"><rect fill="#ffffff" height="120" stroke="none" width="192" x="1520" y="600"/></g><g transform="translate(-38,-70) scale(1,1)"><path d="M 1520 600 L 1712 600 L 1712 720 L 1520 720 L 1520 600 Z Z" fill="none" stroke="#000000" stroke-miterlimit="10"/></g><g transform="translate(-38,-70) scale(1,1)"><path d="M 1520 625 L 1712 625" fill="none" stroke="#000000" stroke-miterlimit="10"/></g><g transform="translate(-38,-70) scale(1,1)"><path d="M 1520 635 L 1712 635" fill="none" stroke="#000000" stroke-miterlimit="10"/></g><g transform="translate(-38,-70) scale(1,1)"><g><path fill="none" stroke="none"/><text fill="#000000" font-family="Arial" font-size="13px" font-style="normal" font-weight="bold" stroke="none" text-decoration="none" x="1584.57275390625" y="619.5">DisplayCLI</text></g></g><g transform="translate(-38,-70) scale(1,1)"><g><path fill="none" stroke="none"/><text fill="#000000" font-family="Arial" font-size="13px" font-style="normal" font-weight="normal" stroke="none" text-decoration="none" x="1525" y="652.5">+inputParser()</text></g></g><g transform="translate(-38,-70) scale(1,1)"><rect fill="#C0C0C0" height="128" opacity="0.2" stroke="none" width="172.603515625" x="1335" y="383"/></g><g transform="translate(-38,-70) scale(1,1)"><rect fill="#ffffff" height="128" stroke="none" width="172.603515625" x="1328" y="376"/></g><g transform="translate(-38,-70) scale(1,1)"><path d="M 1328 376 L 1500.603515625 376 L 1500.603515625 504 L 1328 504 L 1328 376 Z Z" fill="none" stroke="#000000" stroke-miterlimit="10"/></g><g transform="translate(-38,-70) scale(1,1)"><path d="M 1328 401 L 1500.603515625 401" fill="none" stroke="#000000" stroke-miterlimit="10"/></g><g transform="translate(-38,-70) scale(1,1)"><path d="M 1328 424 L 1500.603515625 424" fill="none" stroke="#000000" stroke-miterlimit="10"/></g><g transform="translate(-38,-70) scale(1,1)"><g><path fill="none" stroke="none"/><text fill="#000000" font-family="Arial" font-size="13px" font-style="normal" font-weight="bold" stroke="none" text-decoration="none" x="1360.464111328125" y="395.5">InterfacesSkeleton</text></g></g><g transform="translate(-38,-70) scale(1,1)"><g><path fill="none" stroke="none"/><text fill="#000000" font-family="Arial" font-size="13px" font-style="normal" font-weight="normal" stroke="none" text-decoration="none" x="1333" y="418.5">+loggerListener: Listener</text></g></g><g transform="translate(-38,-70) scale(1,1)"><g><path fill="none" stroke="none"/><text fill="#000000" font-family="Arial" font-size="13px" font-style="normal" font-weight="normal" stroke="none" text-decoration="none" x="1333" y="441.5">+loadConfig(...)</text></g></g><g transform="translate(-38,-70) scale(1,1)"><g><path fill="none" stroke="none"/><text fill="#000000" font-family="Arial" font-size="13px" font-style="normal" font-weight="normal" stroke="none" text-decoration="none" x="1333" y="456.5">+startBenchmark()</text></g></g><g transform="translate(-38,-70) scale(1,1)"><g><path fill="none" stroke="none"/><text fill="#000000" font-family="Arial" font-size="13px" font-style="normal" font-weight="normal" stroke="none" text-decoration="none" x="1333" y="471.5">+stopBenchmark()</text></g></g><g transform="translate(-38,-70) scale(1,1)"><path d="M 1280 599 L 1359 505" fill="none" stroke="#000000" stroke-miterlimit="10"/></g><g transform="translate(-38,-70) scale(1,1)"><path d="M 1352.368159768828 525.97662258678 L 1359 505 L 1339.4778687232895 515.1432928782955" fill="#FFFFFF" stroke="none"/></g><g transform="translate(-38,-70) scale(1,1)"><path d="M 1352.368159768828 525.97662258678 L 1359 505 L 1339.4778687232895 515.1432928782955 L 1352.368159768828 525.97662258678" fill="none" stroke="#000000" stroke-miterlimit="10"/></g><g transform="translate(-38,-70) scale(1,1)"><path d="M 1413 599 L 1413 505" fill="none" stroke="#000000" stroke-miterlimit="10"/></g><g transform="translate(-38,-70) scale(1,1)"><path d="M 1421.419035512032 525.3253497152483 L 1413 505 L 1404.580964487968 525.3253497152483" fill="#FFFFFF" stroke="none"/></g><g transform="translate(-38,-70) scale(1,1)"><path d="M 1421.419035512032 525.3253497152483 L 1413 505 L 1404.580964487968 525.3253497152483 L 1421.419035512032 525.3253497152483" fill="none" stroke="#000000" stroke-miterlimit="10"/></g><g transform="translate(-38,-70) scale(1,1)"><path d="M 1560 599 L 1474 505" fill="none" stroke="#000000" stroke-miterlimit="10"/></g><g transform="translate(-38,-70) scale(1,1)"><path d="M 1493.9314946439583 514.313190713062 L 1474 505 L 1481.5082747142364 525.6791153296159" fill="#FFFFFF" stroke="none"/></g><g transform="translate(-38,-70) scale(1,1)"><path d="M 1493.9314946439583 514.313190713062 L 1474 505 L 1481.5082747142364 525.6791153296159 L 1493.9314946439583 514.313190713062" fill="none" stroke="#000000" stroke-miterlimit="10"/></g><g transform="translate(-38,-70) scale(1,1)"><path d="M 1414 375 L 1412 227" fill="none" stroke="#000000" stroke-miterlimit="10"/></g><g transform="translate(-38,-70) scale(1,1)"><path d="M 1069.02001953125 362.5 C 1069.02001953125 356.1487248 1074.16874433125 351 1080.52001953125 351 C 1086.87129473125 351 1092.02001953125 356.1487248 1092.02001953125 362.5 C 1092.02001953125 368.8512752 1086.87129473125 374 1080.52001953125 374 C 1074.16874433125 374 1069.02001953125 368.8512752 1069.02001953125 362.5 Z" fill="#C0C0C0" opacity="0.2" stroke="none"/></g><g transform="translate(-38,-70) scale(1,1)"><path d="M 1062.02001953125 355.5 C 1062.02001953125 349.1487248 1067.16874433125 344 1073.52001953125 344 C 1079.87129473125 344 1085.02001953125 349.1487248 1085.02001953125 355.5 C 1085.02001953125 361.8512752 1079.87129473125 367 1073.52001953125 367 C 1067.16874433125 367 1062.02001953125 361.8512752 1062.02001953125 355.5 Z" fill="#ffffff" stroke="none"/></g><g transform="translate(-38,-70) scale(1,1)"><path d="M 1062.02001953125 355.5 C 1062.02001953125 349.1487248 1067.16874433125 344 1073.52001953125 344 C 1079.87129473125 344 1085.02001953125 349.1487248 1085.02001953125 355.5 C 1085.02001953125 361.8512752 1079.87129473125 367 1073.52001953125 367 C 1067.16874433125 367 1062.02001953125 361.8512752 1062.02001953125 355.5 Z" fill="none" stroke="#000000" stroke-miterlimit="10"/></g><g transform="translate(-38,-70) scale(1,1)"><g><path fill="none" stroke="none"/><text fill="#000000" font-family="Arial" font-size="13px" font-style="normal" font-weight="bold" stroke="none" text-decoration="none" x="1018.590576171875" y="386.5">Load Configuration</text></g></g><g transform="translate(-38,-70) scale(1,1)"><path d="M 1074.911376953125 434.5 C 1074.911376953125 428.1487248 1080.060101753125 423 1086.411376953125 423 C 1092.762652153125 423 1097.911376953125 428.1487248 1097.911376953125 434.5 C 1097.911376953125 440.8512752 1092.762652153125 446 1086.411376953125 446 C 1080.060101753125 446 1074.911376953125 440.8512752 1074.911376953125 434.5 Z" fill="#C0C0C0" opacity="0.2" stroke="none"/></g><g transform="translate(-38,-70) scale(1,1)"><path d="M 1067.911376953125 427.5 C 1067.911376953125 421.1487248 1073.060101753125 416 1079.411376953125 416 C 1085.762652153125 416 1090.911376953125 421.1487248 1090.911376953125 427.5 C 1090.911376953125 433.8512752 1085.762652153125 439 1079.411376953125 439 C 1073.060101753125 439 1067.911376953125 433.8512752 1067.911376953125 427.5 Z" fill="#ffffff" stroke="none"/></g><g transform="translate(-38,-70) scale(1,1)"><path d="M 1067.911376953125 427.5 C 1067.911376953125 421.1487248 1073.060101753125 416 1079.411376953125 416 C 1085.762652153125 416 1090.911376953125 421.1487248 1090.911376953125 427.5 C 1090.911376953125 433.8512752 1085.762652153125 439 1079.411376953125 439 C 1073.060101753125 439 1067.911376953125 433.8512752 1067.911376953125 427.5 Z" fill="none" stroke="#000000" stroke-miterlimit="10"/></g><g transform="translate(-38,-70) scale(1,1)"><g><path fill="none" stroke="none"/><text fill="#000000" font-family="Arial" font-size="13px" font-style="normal" font-weight="bold" stroke="none" text-decoration="none" x="1032.4482421875" y="458.5">Runtime Control</text></g></g><g transform="translate(-38,-70) scale(1,1)"><path d="M 942 273 L 1039 343" fill="none" stroke="#000000" stroke-miterlimit="10"/></g><g transform="translate(-38,-70) scale(1,1)"><path d="M 910 273 L 1054 415" fill="none" stroke="#000000" stroke-miterlimit="10"/></g><g transform="translate(-38,-70) scale(1,1)"><path d="M 1221.0171453249727 360.6521377672437 A 11.5 11.5 0 0 1 1210.9828546750273 381.3478622327563" fill="none" stroke="#000000" stroke-miterlimit="10"/></g><g transform="translate(-38,-70) scale(1,1)"><g><path fill="none" stroke="none"/><text fill="#000000" font-family="Arial" font-size="13px" font-style="normal" font-weight="bold" stroke="none" text-decoration="none" x="1161.505126953125" y="402.5">Load Configuration</text></g></g><g transform="translate(-38,-70) scale(1,1)"><path d="M 1327 415 L 1227.9345703125 376.7864583333333" fill="none" stroke="#000000" stroke-miterlimit="10"/></g><g transform="translate(-38,-70) scale(1,1)"><path d="M 1224.59836922628 431.6116192627538 A 11.5 11.5 0 0 1 1221.40163077372 454.3883807372462" fill="none" stroke="#000000" stroke-miterlimit="10"/></g><g transform="translate(-38,-70) scale(1,1)"><g><path fill="none" stroke="none"/><text fill="#000000" font-family="Arial" font-size="13px" font-style="normal" font-weight="bold" stroke="none" text-decoration="none" x="1176.4482421875" y="474.5">Runtime Control</text></g></g><g transform="translate(-38,-70) scale(1,1)"><path d="M 1327 447 L 1234.911376953125 444.67177220394734" fill="none" stroke="#000000" stroke-miterlimit="10"/></g></g></svg>