<?xml version="1.0" encoding="UTF-8" standalone="no"?><svg xmlns="http://www.w3.org/2000/svg" xmlns:xlink="http://www.w3.org/1999/xlink" height="660" version="1.1" width="1708"><defs/><g><g transform="translate(-14,-70) scale(1,1)"><rect fill="#C0C0C0" height="177" opacity="0.2" stroke="none" width="184" x="207" y="103"/></g><g transform="translate(-14,-70) scale(1,1)"><rect fill="#ffffff" height="177" stroke="none" width="184" x="200" y="96"/></g><g transform="translate(-14,-70) scale(1,1)"><path d="M 200 96 L 384 96 L 384 273 L 200 273 L 200 96 Z Z" fill="none" stroke="#000000" stroke-miterlimit="10"/></g><g transform="translate(-14,-70) scale(1,1)"><path d="M 200 121 L 384 121" fill="none" stroke="#000000" stroke-miterlimit="10"/></g><g transform="translate(-14,-70) scale(1,1)"><path d="M 200 144 L 384 144" fill="none" stroke="#000000" stroke-miterlimit="10"/></g><g transform="translate(-14,-70) scale(1,1)"><g><path fill="none" stroke="none"/><text fill="#000000" font-family="Arial" font-size="13px" font-style="italic" font-weight="bold" stroke="none" text-decoration="none" x="239.65087890625" y="115.5">BenchmarkWrapper</text></g></g><g transform="translate(-14,-70) scale(1,1)"><g><path fill="none" stroke="none"/><text fill="#000000" font-family="Arial" font-size="13px" font-style="normal" font-weight="normal" stroke="none" text-decoration="none" x="205" y="138.5">+benchmarkName: str</text></g></g><g transform="translate(-14,-70) scale(1,1)"><g><path fill="none" stroke="none"/><text fill="#000000" font-family="Arial" font-size="13px" font-style="normal" font-weight="normal" stroke="none" text-decoration="none" x="205" y="163.5">+startBenchmark()</text></g></g><g transform="translate(-14,-70) scale(1,1)"><g><path fill="none" stroke="none"/><text fill="#000000" font-family="Arial" font-size="13px" font-style="normal" font-weight="normal" stroke="none" text-decoration="none" x="205" y="178.5">+benchmarkStatus()</text></g></g><g transform="translate(-14,-70) scale(1,1)"><g><path fill="none" stroke="none"/><text fill="#000000" font-family="Arial" font-size="13px" font-style="normal" font-weight="normal" stroke="none" text-decoration="none" x="205" y="193.5">+stopBenchmark()</text></g></g><g transform="translate(-14,-70) scale(1,1)"><g><path fill="none" stroke="none"/><text fill="#000000" font-family="Arial" font-size="13px" font-style="normal" font-weight="normal" stroke="none" text-decoration="none" x="205" y="208.5">+getSettings()</text></g></g><g transform="translate(-14,-70) scale(1,1)"><g><path fill="none" stroke="none"/><text fill="#000000" font-family="Arial" font-size="13px" font-style="normal" font-weight="normal" stroke="none" text-decoration="none" x="205" y="223.5">+setSettings()</text></g></g><g transform="translate(-14,-70) scale(1,1)"><rect fill="#C0C0C0" height="136" opacity="0.2" stroke="none" width="160" x="31" y="343"/></g><g transform="translate(-14,-70) scale(1,1)"><rect fill="#ffffff" height="136" stroke="none" width="160" x="24" y="336"/></g><g transform="translate(-14,-70) scale(1,1)"><path d="M 24 336 L 184 336 L 184 472 L 24 472 L 24 336 Z Z" fill="none" stroke="#000000" stroke-miterlimit="10"/></g><g transform="translate(-14,-70) scale(1,1)"><path d="M 24 361 L 184 361" fill="none" stroke="#000000" stroke-miterlimit="10"/></g><g transform="translate(-14,-70) scale(1,1)"><path d="M 24 371 L 184 371" fill="none" stroke="#000000" stroke-miterlimit="10"/></g><g transform="translate(-14,-70) scale(1,1)"><g><path fill="none" stroke="none"/><text fill="#000000" font-family="Arial" font-size="13px" font-style="normal" font-weight="bold" stroke="none" text-decoration="none" x="64.984130859375" y="355.5">Benchmark A</text></g></g><g transform="translate(-14,-70) scale(1,1)"><path d="M 163 335 L 215 274" fill="none" stroke="#000000" stroke-miterlimit="10"/></g><g transform="translate(-14,-70) scale(1,1)"><path d="M 208.2212640773904 294.92961393078053 L 215 274 L 195.40723792317857 284.00618179932127" fill="#FFFFFF" stroke="none"/></g><g transform="translate(-14,-70) scale(1,1)"><path d="M 208.2212640773904 294.92961393078053 L 215 274 L 195.40723792317857 284.00618179932127 L 208.2212640773904 294.92961393078053" fill="none" stroke="#000000" stroke-miterlimit="10"/></g><g transform="translate(-14,-70) scale(1,1)"><rect fill="#C0C0C0" height="136" opacity="0.2" stroke="none" width="160" x="215" y="343"/></g><g transform="translate(-14,-70) scale(1,1)"><rect fill="#ffffff" height="136" stroke="none" width="160" x="208" y="336"/></g><g transform="translate(-14,-70) scale(1,1)"><path d="M 208 336 L 368 336 L 368 472 L 208 472 L 208 336 Z Z" fill="none" stroke="#000000" stroke-miterlimit="10"/></g><g transform="translate(-14,-70) scale(1,1)"><path d="M 208 361 L 368 361" fill="none" stroke="#000000" stroke-miterlimit="10"/></g><g transform="translate(-14,-70) scale(1,1)"><path d="M 208 384 L 368 384" fill="none" stroke="#000000" stroke-miterlimit="10"/></g><g transform="translate(-14,-70) scale(1,1)"><g><path fill="none" stroke="none"/><text fill="#000000" font-family="Arial" font-size="13px" font-style="normal" font-weight="bold" stroke="none" text-decoration="none" x="248.984130859375" y="355.5">Benchmark B</text></g></g><g transform="translate(-14,-70) scale(1,1)"><g><path fill="none" stroke="none"/><text fill="#000000" font-family="Arial" font-size="13px" font-style="normal" font-weight="normal" stroke="none" text-decoration="none" x="213" y="378.5">+targetGpu: UUID</text></g></g><g transform="translate(-14,-70) scale(1,1)"><rect fill="#C0C0C0" height="136" opacity="0.2" stroke="none" width="159.96630859375" x="399" y="343"/></g><g transform="translate(-14,-70) scale(1,1)"><rect fill="#ffffff" height="136" stroke="none" width="159.96630859375" x="392" y="336"/></g><g transform="translate(-14,-70) scale(1,1)"><path d="M 392 336 L 551.96630859375 336 L 551.96630859375 472 L 392 472 L 392 336 Z Z" fill="none" stroke="#000000" stroke-miterlimit="10"/></g><g transform="translate(-14,-70) scale(1,1)"><path d="M 392 361 L 551.96630859375 361" fill="none" stroke="#000000" stroke-miterlimit="10"/></g><g transform="translate(-14,-70) scale(1,1)"><path d="M 392 384 L 551.96630859375 384" fill="none" stroke="#000000" stroke-miterlimit="10"/></g><g transform="translate(-14,-70) scale(1,1)"><g><path fill="none" stroke="none"/><text fill="#000000" font-family="Arial" font-size="13px" font-style="normal" font-weight="bold" stroke="none" text-decoration="none" x="432.608642578125" y="355.5">Benchmark C</text></g></g><g transform="translate(-14,-70) scale(1,1)"><g><path fill="none" stroke="none"/><text fill="#000000" font-family="Arial" font-size="13px" font-style="normal" font-weight="normal" stroke="none" text-decoration="none" x="397" y="378.5">+benchmarkVariable</text></g></g><g transform="translate(-14,-70) scale(1,1)"><path d="M 289 335 L 290 274" fill="none" stroke="#000000" stroke-miterlimit="10"/></g><g transform="translate(-14,-70) scale(1,1)"><path d="M 298.0847467631859 294.460617531618 L 290 274 L 281.24893785655325 294.1846206642962" fill="#FFFFFF" stroke="none"/></g><g transform="translate(-14,-70) scale(1,1)"><path d="M 298.0847467631859 294.460617531618 L 290 274 L 281.24893785655325 294.1846206642962 L 298.0847467631859 294.460617531618" fill="none" stroke="#000000" stroke-miterlimit="10"/></g><g transform="translate(-14,-70) scale(1,1)"><path d="M 415 335 L 365 274" fill="none" stroke="#000000" stroke-miterlimit="10"/></g><g transform="translate(-14,-70) scale(1,1)"><path d="M 384.3960229737035 284.3824030360782 L 365 274 L 371.3735917809331 295.0565269645785" fill="#FFFFFF" stroke="none"/></g><g transform="translate(-14,-70) scale(1,1)"><path d="M 384.3960229737035 284.3824030360782 L 365 274 L 371.3735917809331 295.0565269645785 L 384.3960229737035 284.3824030360782" fill="none" stroke="#000000" stroke-miterlimit="10"/></g><g transform="translate(-14,-70) scale(1,1)"><rect fill="#C0C0C0" height="176" opacity="0.2" stroke="none" width="296" x="679" y="103"/></g><g transform="translate(-14,-70) scale(1,1)"><rect fill="#ffffff" height="176" stroke="none" width="296" x="672" y="96"/></g><g transform="translate(-14,-70) scale(1,1)"><path d="M 672 96 L 968 96 L 968 272 L 672 272 L 672 96 Z Z" fill="none" stroke="#000000" stroke-miterlimit="10"/></g><g transform="translate(-14,-70) scale(1,1)"><path d="M 672 121 L 968 121" fill="none" stroke="#000000" stroke-miterlimit="10"/></g><g transform="translate(-14,-70) scale(1,1)"><path d="M 672 144 L 968 144" fill="none" stroke="#000000" stroke-miterlimit="10"/></g><g transform="translate(-14,-70) scale(1,1)"><g><path fill="none" stroke="none"/><text fill="#000000" font-family="Arial" font-size="13px" font-style="normal" font-weight="bold" stroke="none" text-decoration="none" x="763.635986328125" y="115.5">BenchmarkingSuite</text></g></g><g transform="translate(-14,-70) scale(1,1)"><g><path fill="none" stroke="none"/><text fill="#000000" font-family="Arial" font-size="13px" font-style="normal" font-weight="normal" stroke="none" text-decoration="none" x="677" y="138.5">+benchmarkArray: BenchmarkWrapper</text></g></g><g transform="translate(-14,-70) scale(1,1)"><g><path fill="none" stroke="none"/><text fill="#000000" font-family="Arial" font-size="13px" font-style="normal" font-weight="normal" stroke="none" text-decoration="none" x="677" y="161.5">+startBenchmark()</text></g></g><g transform="translate(-14,-70) scale(1,1)"><g><path fill="none" stroke="none"/><text fill="#000000" font-family="Arial" font-size="13px" font-style="normal" font-weight="normal" stroke="none" text-decoration="none" x="677" y="176.5">+stopBenchmark()</text></g></g><g transform="translate(-14,-70) scale(1,1)"><g><path fill="none" stroke="none"/><text fill="#000000" font-family="Arial" font-size="13px" font-style="normal" font-weight="normal" stroke="none" text-decoration="none" x="677" y="191.5">+benchmarkStatus()</text></g></g><g transform="translate(-14,-70) scale(1,1)"><g><path fill="none" stroke="none"/><text fill="#000000" font-family="Arial" font-size="13px" font-style="normal" font-weight="normal" stroke="none" text-decoration="none" x="677" y="206.5">+getSettings()</text></g></g><g transform="translate(-14,-70) scale(1,1)"><g><path fill="none" stroke="none"/><text fill="#000000" font-family="Arial" font-size="13px" font-style="normal" font-weight="normal" stroke="none" text-decoration="none" x="677" y="221.5">+setSettings()</text></g></g><g transform="translate(-14,-70) scale(1,1)"><path d="M 1084.9990234375 154.5 C 1084.9990234375 148.1487248 1090.1477482375 143 1096.4990234375 143 C 1102.8502986375 143 1107.9990234375 148.1487248 1107.9990234375 154.5 C 1107.9990234375 160.8512752 1102.8502986375 166 1096.4990234375 166 C 1090.1477482375 166 1084.9990234375 160.8512752 1084.9990234375 154.5 Z" fill="#C0C0C0" opacity="0.2" stroke="none"/></g><g transform="translate(-14,-70) scale(1,1)"><path d="M 1077.9990234375 147.5 C 1077.9990234375 141.1487248 1083.1477482375 136 1089.4990234375 136 C 1095.8502986375 136 1100.9990234375 141.1487248 1100.9990234375 147.5 C 1100.9990234375 153.8512752 1095.8502986375 159 1089.4990234375 159 C 1083.1477482375 159 1077.9990234375 153.8512752 1077.9990234375 147.5 Z" fill="#ffffff" stroke="none"/></g><g transform="translate(-14,-70) scale(1,1)"><path d="M 1077.9990234375 147.5 C 1077.9990234375 141.1487248 1083.1477482375 136 1089.4990234375 136 C 1095.8502986375 136 1100.9990234375 141.1487248 1100.9990234375 147.5 C 1100.9990234375 153.8512752 1095.8502986375 159 1089.4990234375 159 C 1083.1477482375 159 1077.9990234375 153.8512752 1077.9990234375 147.5 Z" fill="none" stroke="#000000" stroke-miterlimit="10"/></g><g transform="translate(-14,-70) scale(1,1)"><g><path fill="none" stroke="none"/><text fill="#000000" font-family="Arial" font-size="13px" font-style="normal" font-weight="bold" stroke="none" text-decoration="none" x="1025.917724609375" y="178.5">System Specifications</text></g></g><g transform="translate(-14,-70) scale(1,1)"><path d="M 1102.1962890625 218.5 C 1102.1962890625 212.1487248 1107.3450138625 207 1113.6962890625 207 C 1120.0475642625 207 1125.1962890625 212.1487248 1125.1962890625 218.5 C 1125.1962890625 224.8512752 1120.0475642625 230 1113.6962890625 230 C 1107.3450138625 230 1102.1962890625 224.8512752 1102.1962890625 218.5 Z" fill="#C0C0C0" opacity="0.2" stroke="none"/></g><g transform="translate(-14,-70) scale(1,1)"><path d="M 1095.1962890625 211.5 C 1095.1962890625 205.1487248 1100.3450138625 200 1106.6962890625 200 C 1113.0475642625 200 1118.1962890625 205.1487248 1118.1962890625 211.5 C 1118.1962890625 217.8512752 1113.0475642625 223 1106.6962890625 223 C 1100.3450138625 223 1095.1962890625 217.8512752 1095.1962890625 211.5 Z" fill="#ffffff" stroke="none"/></g><g transform="translate(-14,-70) scale(1,1)"><path d="M 1095.1962890625 211.5 C 1095.1962890625 205.1487248 1100.3450138625 200 1106.6962890625 200 C 1113.0475642625 200 1118.1962890625 205.1487248 1118.1962890625 211.5 C 1118.1962890625 217.8512752 1113.0475642625 223 1106.6962890625 223 C 1100.3450138625 223 1095.1962890625 217.8512752 1095.1962890625 211.5 Z" fill="none" stroke="#000000" stroke-miterlimit="10"/></g><g transform="translate(-14,-70) scale(1,1)"><g><path fill="none" stroke="none"/><text fill="#000000" font-family="Arial" font-size="13px" font-style="normal" font-weight="bold" stroke="none" text-decoration="none" x="1056.1181640625" y="242.5">Processes Status</text></g></g><g transform="translate(-14,-70) scale(1,1)"><path d="M 1099.8857421875 274.5 C 1099.8857421875 268.1487248 1105.0344669875 263 1111.3857421875 263 C 1117.7370173875 263 1122.8857421875 268.1487248 1122.8857421875 274.5 C 1122.8857421875 280.8512752 1117.7370173875 286 1111.3857421875 286 C 1105.0344669875 286 1099.8857421875 280.8512752 1099.8857421875 274.5 Z" fill="#C0C0C0" opacity="0.2" stroke="none"/></g><g transform="translate(-14,-70) scale(1,1)"><path d="M 1092.8857421875 267.5 C 1092.8857421875 261.1487248 1098.0344669875 256 1104.3857421875 256 C 1110.7370173875 256 1115.8857421875 261.1487248 1115.8857421875 267.5 C 1115.8857421875 273.8512752 1110.7370173875 279 1104.3857421875 279 C 1098.0344669875 279 1092.8857421875 273.8512752 1092.8857421875 267.5 Z" fill="#ffffff" stroke="none"/></g><g transform="translate(-14,-70) scale(1,1)"><path d="M 1092.8857421875 267.5 C 1092.8857421875 261.1487248 1098.0344669875 256 1104.3857421875 256 C 1110.7370173875 256 1115.8857421875 261.1487248 1115.8857421875 267.5 C 1115.8857421875 273.8512752 1110.7370173875 279 1104.3857421875 279 C 1098.0344669875 279 1092.8857421875 273.8512752 1092.8857421875 267.5 Z" fill="none" stroke="#000000" stroke-miterlimit="10"/></g><g transform="translate(-14,-70) scale(1,1)"><g><path fill="none" stroke="none"/><text fill="#000000" font-family="Arial" font-size="13px" font-style="normal" font-weight="bold" stroke="none" text-decoration="none" x="1056.337158203125" y="298.5">Task Completion</text></g></g><g transform="translate(-14,-70) scale(1,1)"><path d="M 1085.128662109375 98.5 C 1085.128662109375 92.1487248 1090.277386909375 87 1096.628662109375 87 C 1102.979937309375 87 1108.128662109375 92.1487248 1108.128662109375 98.5 C 1108.128662109375 104.8512752 1102.979937309375 110 1096.628662109375 110 C 1090.277386909375 110 1085.128662109375 104.8512752 1085.128662109375 98.5 Z" fill="#C0C0C0" opacity="0.2" stroke="none"/></g><g transform="translate(-14,-70) scale(1,1)"><path d="M 1078.128662109375 91.5 C 1078.128662109375 85.1487248 1083.277386909375 80 1089.628662109375 80 C 1095.979937309375 80 1101.128662109375 85.1487248 1101.128662109375 91.5 C 1101.128662109375 97.8512752 1095.979937309375 103 1089.628662109375 103 C 1083.277386909375 103 1078.128662109375 97.8512752 1078.128662109375 91.5 Z" fill="#ffffff" stroke="none"/></g><g transform="translate(-14,-70) scale(1,1)"><path d="M 1078.128662109375 91.5 C 1078.128662109375 85.1487248 1083.277386909375 80 1089.628662109375 80 C 1095.979937309375 80 1101.128662109375 85.1487248 1101.128662109375 91.5 C 1101.128662109375 97.8512752 1095.979937309375 103 1089.628662109375 103 C 1083.277386909375 103 1078.128662109375 97.8512752 1078.128662109375 91.5 Z" fill="none" stroke="#000000" stroke-miterlimit="10"/></g><g transform="translate(-14,-70) scale(1,1)"><g><path fill="none" stroke="none"/><text fill="#000000" font-family="Arial" font-size="13px" font-style="normal" font-weight="bold" stroke="none" text-decoration="none" x="1048.070556640625" y="122.5">Logger Output</text></g></g><g transform="translate(-14,-70) scale(1,1)"><path d="M 969 140 L 1039 119" fill="none" stroke="#000000" stroke-miterlimit="10"/></g><g transform="translate(-14,-70) scale(1,1)"><path d="M 969 171 L 1015 167" fill="none" stroke="#000000" stroke-miterlimit="10"/></g><g transform="translate(-14,-70) scale(1,1)"><path d="M 969 205 L 1047 216" fill="none" stroke="#000000" stroke-miterlimit="10"/></g><g transform="translate(-14,-70) scale(1,1)"><path d="M 969 234 L 1047 261" fill="none" stroke="#000000" stroke-miterlimit="10"/></g><g transform="translate(-14,-70) scale(1,1)"><rect fill="#C0C0C0" height="130" opacity="0.2" stroke="none" width="168" x="1335" y="103"/></g><g transform="translate(-14,-70) scale(1,1)"><rect fill="#ffffff" height="130" stroke="none" width="168" x="1328" y="96"/></g><g transform="translate(-14,-70) scale(1,1)"><path d="M 1328 96 L 1496 96 L 1496 226 L 1328 226 L 1328 96 Z Z" fill="none" stroke="#000000" stroke-miterlimit="10"/></g><g transform="translate(-14,-70) scale(1,1)"><path d="M 1328 121 L 1496 121" fill="none" stroke="#000000" stroke-miterlimit="10"/></g><g transform="translate(-14,-70) scale(1,1)"><path d="M 1328 131 L 1496 131" fill="none" stroke="#000000" stroke-miterlimit="10"/></g><g transform="translate(-14,-70) scale(1,1)"><g><path fill="none" stroke="none"/><text fill="#000000" font-family="Arial" font-size="13px" font-style="normal" font-weight="bold" stroke="none" text-decoration="none" x="1388.87548828125" y="115.5">Listener</text></g></g><g transform="translate(-14,-70) scale(1,1)"><g><path fill="none" stroke="none"/><text fill="#000000" font-family="Arial" font-size="13px" font-style="normal" font-weight="normal" stroke="none" text-decoration="none" x="1333" y="148.5">+getLoggerOutput()</text></g></g><g transform="translate(-14,-70) scale(1,1)"><g><path fill="none" stroke="none"/><text fill="#000000" font-family="Arial" font-size="13px" font-style="normal" font-weight="normal" stroke="none" text-decoration="none" x="1333" y="163.5">+getSysSpecs()</text></g></g><g transform="translate(-14,-70) scale(1,1)"><g><path fill="none" stroke="none"/><text fill="#000000" font-family="Arial" font-size="13px" font-style="normal" font-weight="normal" stroke="none" text-decoration="none" x="1333" y="178.5">+getPsStatus()</text></g></g><g transform="translate(-14,-70) scale(1,1)"><g><path fill="none" stroke="none"/><text fill="#000000" font-family="Arial" font-size="13px" font-style="normal" font-weight="normal" stroke="none" text-decoration="none" x="1333" y="193.5">+getTaskStatus()</text></g></g><g transform="translate(-14,-70) scale(1,1)"><path d="M 1228.2702702702702 264.1216216216216 A 11.5 11.5 0 0 1 1235.7297297297298 285.8783783783784" fill="none" stroke="#000000" stroke-miterlimit="10"/></g><g transform="translate(-14,-70) scale(1,1)"><g><path fill="none" stroke="none"/><text fill="#000000" font-family="Arial" font-size="13px" font-style="normal" font-weight="bold" stroke="none" text-decoration="none" x="1184.337158203125" y="306.5">Task Completion</text></g></g><g transform="translate(-14,-70) scale(1,1)"><path d="M 1327 221 L 1243.8857421875 270.92488839285716" fill="none" stroke="#000000" stroke-miterlimit="10"/></g><g transform="translate(-14,-70) scale(1,1)"><path d="M 1224.1094116459883 207.65646987593036 A 11.5 11.5 0 0 1 1227.8905883540117 230.34353012406964" fill="none" stroke="#000000" stroke-miterlimit="10"/></g><g transform="translate(-14,-70) scale(1,1)"><g><path fill="none" stroke="none"/><text fill="#000000" font-family="Arial" font-size="13px" font-style="normal" font-weight="bold" stroke="none" text-decoration="none" x="1176.1181640625" y="250.5">Processes Status</text></g></g><g transform="translate(-14,-70) scale(1,1)"><path d="M 1327 193 L 1238.1962890625 216.96728515625" fill="none" stroke="#000000" stroke-miterlimit="10"/></g><g transform="translate(-14,-70) scale(1,1)"><path d="M 1226.5198827810468 143.6008791421497 A 11.5 11.5 0 0 1 1223.4801172189534 166.3991208578503" fill="none" stroke="#000000" stroke-miterlimit="10"/></g><g transform="translate(-14,-70) scale(1,1)"><g><path fill="none" stroke="none"/><text fill="#000000" font-family="Arial" font-size="13px" font-style="normal" font-weight="bold" stroke="none" text-decoration="none" x="1161.917724609375" y="186.5">System Specifications</text></g></g><g transform="translate(-14,-70) scale(1,1)"><path d="M 1327 164 L 1236.9990234375 156.59986979166666" fill="none" stroke="#000000" stroke-miterlimit="10"/></g><g transform="translate(-14,-70) scale(1,1)"><path d="M 1230.684475581617 81.00316363232854 A 11.5 11.5 0 0 1 1219.315524418383 100.99683636767146" fill="none" stroke="#000000" stroke-miterlimit="10"/></g><g transform="translate(-14,-70) scale(1,1)"><g><path fill="none" stroke="none"/><text fill="#000000" font-family="Arial" font-size="13px" font-style="normal" font-weight="bold" stroke="none" text-decoration="none" x="1184.070556640625" y="122.5">Logger Output</text></g></g><g transform="translate(-14,-70) scale(1,1)"><path d="M 1327 135 L 1237.128662109375 97.89669021905637" fill="none" stroke="#000000" stroke-miterlimit="10"/></g><g transform="translate(-14,-70) scale(1,1)"><path d="M 385 184 L 671 184" fill="none" stroke="#000000" stroke-miterlimit="10"/></g><g transform="translate(-14,-70) scale(1,1)"><g><path fill="none" stroke="none"/><text fill="#000000" font-family="Arial" font-size="13px" font-style="normal" font-weight="normal" stroke="none" text-decoration="none" x="396.5" y="202.5">1..*</text></g></g><g transform="translate(-14,-70) scale(1,1)"><g><path fill="none" stroke="none"/><text fill="#000000" font-family="Arial" font-size="13px" font-style="normal" font-weight="normal" stroke="none" text-decoration="none" x="645.5" y="202.5">1</text></g></g><g transform="translate(-14,-70) scale(1,1)"><rect fill="#C0C0C0" height="120" opacity="0.2" stroke="none" width="168" x="1151" y="607"/></g><g transform="translate(-14,-70) scale(1,1)"><rect fill="#ffffff" height="120" stroke="none" width="168" x="1144" y="600"/></g><g transform="translate(-14,-70) scale(1,1)"><path d="M 1144 600 L 1312 600 L 1312 720 L 1144 720 L 1144 600 Z Z" fill="none" stroke="#000000" stroke-miterlimit="10"/></g><g transform="translate(-14,-70) scale(1,1)"><path d="M 1144 625 L 1312 625" fill="none" stroke="#000000" stroke-miterlimit="10"/></g><g transform="translate(-14,-70) scale(1,1)"><path d="M 1144 635 L 1312 635" fill="none" stroke="#000000" stroke-miterlimit="10"/></g><g transform="translate(-14,-70) scale(1,1)"><g><path fill="none" stroke="none"/><text fill="#000000" font-family="Arial" font-size="13px" font-style="normal" font-weight="bold" stroke="none" text-decoration="none" x="1195.1318359375" y="619.5">DisplayGUI</text></g></g><g transform="translate(-14,-70) scale(1,1)"><g><path fill="none" stroke="none"/><text fill="#000000" font-family="Arial" font-size="13px" font-style="normal" font-weight="normal" stroke="none" text-decoration="none" x="1149" y="652.5">+renderOutput()</text></g></g><g transform="translate(-14,-70) scale(1,1)"><g><path fill="none" stroke="none"/><text fill="#000000" font-family="Arial" font-size="13px" font-style="normal" font-weight="normal" stroke="none" text-decoration="none" x="1149" y="667.5">+inputParser()</text></g></g><g transform="translate(-14,-70) scale(1,1)"><rect fill="#C0C0C0" height="120" opacity="0.2" stroke="none" width="168" x="1335" y="607"/></g><g transform="translate(-14,-70) scale(1,1)"><rect fill="#ffffff" height="120" stroke="none" width="168" x="1328" y="600"/></g><g transform="translate(-14,-70) scale(1,1)"><path d="M 1328 600 L 1496 600 L 1496 720 L 1328 720 L 1328 600 Z Z" fill="none" stroke="#000000" stroke-miterlimit="10"/></g><g transform="translate(-14,-70) scale(1,1)"><path d="M 1328 625 L 1496 625" fill="none" stroke="#000000" stroke-miterlimit="10"/></g><g transform="translate(-14,-70) scale(1,1)"><path d="M 1328 635 L 1496 635" fill="none" stroke="#000000" stroke-miterlimit="10"/></g><g transform="translate(-14,-70) scale(1,1)"><g><path fill="none" stroke="none"/><text fill="#000000" font-family="Arial" font-size="13px" font-style="normal" font-weight="bold" stroke="none" text-decoration="none" x="1387.431396484375" y="619.5">Daemon</text></g></g><g transform="translate(-14,-70) scale(1,1)"><rect fill="#C0C0C0" height="120" opacity="0.2" stroke="none" width="192" x="1527" y="607"/></g><g transform="translate(-14,-70) scale(1,1)"><rect fill="#ffffff" height="120" stroke="none" width="192" x="1520" y="600"/></g><g transform="translate(-14,-70) scale(1,1)"><path d="M 1520 600 L 1712 600 L 1712 720 L 1520 720 L 1520 600 Z Z" fill="none" stroke="#000000" stroke-miterlimit="10"/></g><g transform="translate(-14,-70) scale(1,1)"><path d="M 1520 625 L 1712 625" fill="none" stroke="#000000" stroke-miterlimit="10"/></g><g transform="translate(-14,-70) scale(1,1)"><path d="M 1520 635 L 1712 635" fill="none" stroke="#000000" stroke-miterlimit="10"/></g><g transform="translate(-14,-70) scale(1,1)"><g><path fill="none" stroke="none"/><text fill="#000000" font-family="Arial" font-size="13px" font-style="normal" font-weight="bold" stroke="none" text-decoration="none" x="1584.57275390625" y="619.5">DisplayCLI</text></g></g><g transform="translate(-14,-70) scale(1,1)"><g><path fill="none" stroke="none"/><text fill="#000000" font-family="Arial" font-size="13px" font-style="normal" font-weight="normal" stroke="none" text-decoration="none" x="1525" y="652.5">+inputParser()</text></g></g><g transform="translate(-14,-70) scale(1,1)"><rect fill="#C0C0C0" height="128" opacity="0.2" stroke="none" width="172.603515625" x="1335" y="383"/></g><g transform="translate(-14,-70) scale(1,1)"><rect fill="#ffffff" height="128" stroke="none" width="172.603515625" x="1328" y="376"/></g><g transform="translate(-14,-70) scale(1,1)"><path d="M 1328 376 L 1500.603515625 376 L 1500.603515625 504 L 1328 504 L 1328 376 Z Z" fill="none" stroke="#000000" stroke-miterlimit="10"/></g><g transform="translate(-14,-70) scale(1,1)"><path d="M 1328 401 L 1500.603515625 401" fill="none" stroke="#000000" stroke-miterlimit="10"/></g><g transform="translate(-14,-70) scale(1,1)"><path d="M 1328 424 L 1500.603515625 424" fill="none" stroke="#000000" stroke-miterlimit="10"/></g><g transform="translate(-14,-70) scale(1,1)"><g><path fill="none" stroke="none"/><text fill="#000000" font-family="Arial" font-size="13px" font-style="normal" font-weight="bold" stroke="none" text-decoration="none" x="1360.464111328125" y="395.5">InterfacesSkeleton</text></g></g><g transform="translate(-14,-70) scale(1,1)"><g><path fill="none" stroke="none"/><text fill="#000000" font-family="Arial" font-size="13px" font-style="normal" font-weight="normal" stroke="none" text-decoration="none" x="1333" y="418.5">+loggerListener: Listener</text></g></g><g transform="translate(-14,-70) scale(1,1)"><g><path fill="none" stroke="none"/><text fill="#000000" font-family="Arial" font-size="13px" font-style="normal" font-weight="normal" stroke="none" text-decoration="none" x="1333" y="443.5">+startBenchmark()</text></g></g><g transform="translate(-14,-70) scale(1,1)"><g><path fill="none" stroke="none"/><text fill="#000000" font-family="Arial" font-size="13px" font-style="normal" font-weight="normal" stroke="none" text-decoration="none" x="1333" y="458.5">+stopBenchmark()</text></g></g><g transform="translate(-14,-70) scale(1,1)"><g><path fill="none" stroke="none"/><text fill="#000000" font-family="Arial" font-size="13px" font-style="normal" font-weight="normal" stroke="none" text-decoration="none" x="1333" y="473.5">+getSettings()</text></g></g><g transform="translate(-14,-70) scale(1,1)"><path d="M 1280 599 L 1359 505" fill="none" stroke="#000000" stroke-miterlimit="10"/></g><g transform="translate(-14,-70) scale(1,1)"><path d="M 1352.368159768828 525.97662258678 L 1359 505 L 1339.4778687232895 515.1432928782955" fill="#FFFFFF" stroke="none"/></g><g transform="translate(-14,-70) scale(1,1)"><path d="M 1352.368159768828 525.97662258678 L 1359 505 L 1339.4778687232895 515.1432928782955 L 1352.368159768828 525.97662258678" fill="none" stroke="#000000" stroke-miterlimit="10"/></g><g transform="translate(-14,-70) scale(1,1)"><path d="M 1413 599 L 1413 505" fill="none" stroke="#000000" stroke-miterlimit="10"/></g><g transform="translate(-14,-70) scale(1,1)"><path d="M 1421.419035512032 525.3253497152483 L 1413 505 L 1404.580964487968 525.3253497152483" fill="#FFFFFF" stroke="none"/></g><g transform="translate(-14,-70) scale(1,1)"><path d="M 1421.419035512032 525.3253497152483 L 1413 505 L 1404.580964487968 525.3253497152483 L 1421.419035512032 525.3253497152483" fill="none" stroke="#000000" stroke-miterlimit="10"/></g><g transform="translate(-14,-70) scale(1,1)"><path d="M 1560 599 L 1474 505" fill="none" stroke="#000000" stroke-miterlimit="10"/></g><g transform="translate(-14,-70) scale(1,1)"><path d="M 1493.9314946439583 514.313190713062 L 1474 505 L 1481.5082747142364 525.6791153296159" fill="#FFFFFF" stroke="none"/></g><g transform="translate(-14,-70) scale(1,1)"><path d="M 1493.9314946439583 514.313190713062 L 1474 505 L 1481.5082747142364 525.6791153296159 L 1493.9314946439583 514.313190713062" fill="none" stroke="#000000" stroke-miterlimit="10"/></g><g transform="translate(-14,-70) scale(1,1)"><path d="M 1414 375 L 1412 227" fill="none" stroke="#000000" stroke-miterlimit="10"/></g><g transform="translate(-14,-70) scale(1,1)"><path d="M 1101.02001953125 354.5 C 1101.02001953125 348.1487248 1106.16874433125 343 1112.52001953125 343 C 1118.87129473125 343 1124.02001953125 348.1487248 1124.02001953125 354.5 C 1124.02001953125 360.8512752 1118.87129473125 366 1112.52001953125 366 C 1106.16874433125 366 1101.02001953125 360.8512752 1101.02001953125 354.5 Z" fill="#C0C0C0" opacity="0.2" stroke="none"/></g><g transform="translate(-14,-70) scale(1,1)"><path d="M 1094.02001953125 347.5 C 1094.02001953125 341.1487248 1099.16874433125 336 1105.52001953125 336 C 1111.87129473125 336 1117.02001953125 341.1487248 1117.02001953125 347.5 C 1117.02001953125 353.8512752 1111.87129473125 359 1105.52001953125 359 C 1099.16874433125 359 1094.02001953125 353.8512752 1094.02001953125 347.5 Z" fill="#ffffff" stroke="none"/></g><g transform="translate(-14,-70) scale(1,1)"><path d="M 1094.02001953125 347.5 C 1094.02001953125 341.1487248 1099.16874433125 336 1105.52001953125 336 C 1111.87129473125 336 1117.02001953125 341.1487248 1117.02001953125 347.5 C 1117.02001953125 353.8512752 1111.87129473125 359 1105.52001953125 359 C 1099.16874433125 359 1094.02001953125 353.8512752 1094.02001953125 347.5 Z" fill="none" stroke="#000000" stroke-miterlimit="10"/></g><g transform="translate(-14,-70) scale(1,1)"><g><path fill="none" stroke="none"/><text fill="#000000" font-family="Arial" font-size="13px" font-style="normal" font-weight="bold" stroke="none" text-decoration="none" x="1050.590576171875" y="378.5">Load Configuration</text></g></g><g transform="translate(-14,-70) scale(1,1)"><path d="M 1074.911376953125 434.5 C 1074.911376953125 428.1487248 1080.060101753125 423 1086.411376953125 423 C 1092.762652153125 423 1097.911376953125 428.1487248 1097.911376953125 434.5 C 1097.911376953125 440.8512752 1092.762652153125 446 1086.411376953125 446 C 1080.060101753125 446 1074.911376953125 440.8512752 1074.911376953125 434.5 Z" fill="#C0C0C0" opacity="0.2" stroke="none"/></g><g transform="translate(-14,-70) scale(1,1)"><path d="M 1067.911376953125 427.5 C 1067.911376953125 421.1487248 1073.060101753125 416 1079.411376953125 416 C 1085.762652153125 416 1090.911376953125 421.1487248 1090.911376953125 427.5 C 1090.911376953125 433.8512752 1085.762652153125 439 1079.411376953125 439 C 1073.060101753125 439 1067.911376953125 433.8512752 1067.911376953125 427.5 Z" fill="#ffffff" stroke="none"/></g><g transform="translate(-14,-70) scale(1,1)"><path d="M 1067.911376953125 427.5 C 1067.911376953125 421.1487248 1073.060101753125 416 1079.411376953125 416 C 1085.762652153125 416 1090.911376953125 421.1487248 1090.911376953125 427.5 C 1090.911376953125 433.8512752 1085.762652153125 439 1079.411376953125 439 C 1073.060101753125 439 1067.911376953125 433.8512752 1067.911376953125 427.5 Z" fill="none" stroke="#000000" stroke-miterlimit="10"/></g><g transform="translate(-14,-70) scale(1,1)"><g><path fill="none" stroke="none"/><text fill="#000000" font-family="Arial" font-size="13px" font-style="normal" font-weight="bold" stroke="none" text-decoration="none" x="1032.4482421875" y="458.5">Runtime Control</text></g></g><g transform="translate(-14,-70) scale(1,1)"><path d="M 964 273 L 1065 335" fill="none" stroke="#000000" stroke-miterlimit="10"/></g><g transform="translate(-14,-70) scale(1,1)"><path d="M 910 273 L 1054 415" fill="none" stroke="#000000" stroke-miterlimit="10"/></g><g transform="translate(-14,-70) scale(1,1)"><path d="M 1238.37905225659 337.4314216151148 A 11.5 11.5 0 0 1 1225.62094774341 356.5685783848852" fill="none" stroke="#000000" stroke-miterlimit="10"/></g><g transform="translate(-14,-70) scale(1,1)"><g><path fill="none" stroke="none"/><text fill="#000000" font-family="Arial" font-size="13px" font-style="normal" font-weight="bold" stroke="none" text-decoration="none" x="1177.505126953125" y="378.5">Load Configuration</text></g></g><g transform="translate(-14,-70) scale(1,1)"><path d="M 1327 402 L 1243.9345703125 354.9563802083333" fill="none" stroke="#000000" stroke-miterlimit="10"/></g><g transform="translate(-14,-70) scale(1,1)"><path d="M 1209.5571438728443 415.7879076344522 A 11.5 11.5 0 0 1 1204.4428561271557 438.2120923655478" fill="none" stroke="#000000" stroke-miterlimit="10"/></g><g transform="translate(-14,-70) scale(1,1)"><g><path fill="none" stroke="none"/><text fill="#000000" font-family="Arial" font-size="13px" font-style="normal" font-weight="bold" stroke="none" text-decoration="none" x="1160.4482421875" y="458.5">Runtime Control</text></g></g><g transform="translate(-14,-70) scale(1,1)"><path d="M 1327 440 L 1218.911376953125 429.7166298314145" fill="none" stroke="#000000" stroke-miterlimit="10"/></g></g></svg>