<svg xmlns="http://www.w3.org/2000/svg" xmlns:xlink="http://www.w3.org/1999/xlink" xmlns:lucid="lucid" width="1760" height="1360"><g transform="translate(0 0)" lucid:page-tab-id="0_0"><path d="M0 0h1760v1360H0z" fill="#fff"/><path d="M880.5 1199.5h-1v-10.05h1zm0-20.1h-1v-20.1h1zm0-30.14h-1v-20.1h1zm0-30.14h-1v-20.1h1zm0-30.14h-1v-20.1h1zm0-30.15h-1v-20.1h1zm0-30.14h-1v-20.1h1zm-.27-30.15h-.73v-20.1h.73zm.27-30.14h-1v-20.1h1zm0-30.14h-1v-20.1h1zm0-30.14h-1v-20.1h1zm0-30.14h-1v-20.1h1zm0-30.14h-1v-20.1h1zm0-30.15h-1v-20.1h1zm0-30.15h-1v-20.1h1zm0-30.14h-1v-20.1h1zm0-30.13h-1v-20.1h1zm0-30.15h-1v-20.1h1zm0-30.14h-1v-20.1h1zm0-30.14h-1v-20.1h1zm0-30.15h-1v-20.1h1zm0-30.15h-1v-20.1h1zm0-30.14h-1v-20.1h1zm0-30.13h-1v-20.1h1zm0-30.15h-1v-20.1h1zm0-30.14h-1v-20.1h1zm0-30.14h-1v-20.1h1zm0-30.14h-1v-20.1h1zm0-30.15h-1v-20.1h1zm0-30.14h-1v-10.04h1z" fill="#333"/><path d="M880.5 325.38h-1v-.52h1zM880.5 1200h-1v-.5h1z" fill="#333"/><path d="M1420.36 325.36v9.96m0 9.95v19.9m0 9.97v19.9m0 9.97v19.92m0 9.95v19.9m0 9.97v19.9m0 9.96v19.9m0 9.97v19.9m0 9.96v19.9m0 9.97v19.9m0 9.97v19.9m0 9.96v19.9m0 9.97v19.9m0 9.96v19.9m0 9.97v19.91m0 9.95v19.9m0 9.96v19.9m0 9.97v19.9m0 9.96v19.9m0 9.96v19.9m0 9.96v19.9m0 9.97v19.9m0 9.95v19.9m0 9.97v19.9m0 9.97v19.9m0 9.95v19.9m0 9.97v19.9m0 9.96v19.9m0 9.97v9.95" stroke="#333" fill="none"/><path d="M1420.86 325.38h-1v-.52h1z" fill="#333"/><path d="M1420.36 1161.6v.5" stroke="#333" fill="none"/><path d="M784.96 210.86c0-4.42 3.58-8 8-8h174.08c4.42 0 8 3.58 8 8v106c0 4.42-3.58 8-8 8H792.96c-4.42 0-8-3.58-8-8z" stroke="#000" stroke-opacity="0" fill="#83bbe5"/><use xlink:href="#a" transform="matrix(1,0,0,1,792.9623809350768,210.86302210073995) translate(16.604938271604937 44.111111111111114)"/><use xlink:href="#b" transform="matrix(1,0,0,1,792.9623809350768,210.86302210073995) translate(62.22222222222222 70.77777777777777)"/><path d="M1325.32 210.86c0-4.42 3.58-8 8-8h174.07c4.4 0 8 3.58 8 8v106c0 4.42-3.6 8-8 8H1333.3c-4.42 0-8-3.58-8-8z" stroke="#000" stroke-opacity="0" fill="#83bbe5"/><use xlink:href="#c" transform="matrix(1,0,0,1,1333.3176862826967,210.86302210073995) translate(48.05555555555556 57.44444444444444)"/><path d="M419.75 222.6c0 10.92-8.84 19.76-19.75 19.76-10.9 0-19.75-8.84-19.75-19.75 0-10.9 8.84-19.74 19.75-19.74 10.9 0 19.75 8.85 19.75 19.75z" stroke="#333" fill="#fff"/><path d="M400 242.36v47.3c0 4.42 1.92 11.03 4.28 14.76L440 360.86m-40-63.2l-40 63.2m0-98.75h80" stroke="#333" fill="none"/><path d="M360 210.86c0-4.42 3.58-8 8-8h64c4.42 0 8 3.58 8 8v164c0 4.42-3.58 8-8 8h-64c-4.42 0-8-3.58-8-8z" fill="none"/><use xlink:href="#d" transform="matrix(1,0,0,1,280,360.86302210073995) translate(99.28395061728395 14.555555555555555)"/><path d="M400 299.1v9.9m0 9.88v19.78m0 9.9v19.76m0 9.9v19.77m0 9.88v19.78m0 9.9v19.77m0 9.9V487m0 9.9v19.77m0 9.9v19.77m0 9.9V576m0 9.9v19.78m0 9.9v19.77m0 9.9V665m0 9.88v19.78m0 9.9v19.77m0 9.9V754m0 9.9v19.77m0 9.88v19.78m0 9.9v19.77m0 9.9v19.77m0 9.9v19.77m0 9.9v19.77m0 9.9v19.77m0 9.9v19.77m0 9.9v19.77m0 9.9v19.77m0 9.9v19.78m0 9.9v19.77m0 9.9v19.77m0 9.9v9.88M400 1159.5v.5" stroke="#333" fill="none"/><path d="M453.15 117.16c0-4.42 3.58-8 8-8h837.7c4.42 0 8 3.58 8 8V120c0 4.42-3.58 8-8 8h-837.7c-4.42 0-8-3.58-8-8z" stroke="#000" stroke-opacity="0" stroke-width="2" fill="#fff" fill-opacity="0"/><path d="M590.83 482.8H400.5v-1h190.33zm252.3 0H668.66v-1h174.45zM400.5 482.8h-.5v-1h.5zM857.88 482.3l-14.26 4.62v-9.27z" fill="#333"/><path d="M859.5 482.3l-16.38 5.3v-10.64zm-15.38 3.93l12.14-3.94-12.14-3.96z" fill="#333"/><use xlink:href="#e" transform="matrix(1,0,0,1,590.825,471.48661398844587) translate(0.005000000000002558 14.4)"/><path d="M240 528c0-4.42 3.58-8 8-8h84c4.42 0 8 3.58 8 8v4.93c0 3.9-2.24 9.3-5 12.07-2.76 2.76-8.17 5-12.07 5H248c-4.42 0-8-3.58-8-8z" fill="#fff"/><path d="M340 520v20l-10 10h-90" stroke="#333" fill="none"/><path d="M240 528c0-4.42 3.58-8 8-8h844c4.42 0 8 3.58 8 8v224c0 4.42-3.58 8-8 8H248c-4.42 0-8-3.58-8-8zM240 640h20m15 0h20m15 0h20m15 0h20m15 0h20m15 0h20m15 0h20m15 0h20m15 0h20m15 0h20m15 0h20m15 0h20m15 0h20m15 0h20m15 0h20m15 0h20m15 0h20m15 0h20m15 0h20m15 0h20m15 0h20m15 0h20m15 0h20m15 0h20m15 0h20" stroke="#333" fill="none"/><use xlink:href="#f" transform="matrix(1,0,0,1,248,520) translate(-1.4249999999999972 18.6)"/><use xlink:href="#g" transform="matrix(1,0,0,1,252,558) translate(0 14.4)"/><use xlink:href="#h" transform="matrix(1,0,0,1,252,558) translate(20 14.4)"/><use xlink:href="#i" transform="matrix(1,0,0,1,252,558) translate(0 36)"/><use xlink:href="#j" transform="matrix(1,0,0,1,252,558) translate(82.85000000000001 36)"/><use xlink:href="#k" transform="matrix(1,0,0,1,252,648) translate(17.525 18.6)"/><path d="M859 568.92h-4.92v-1H859zm-9.84 0h-9.83v-1h9.83zm-14.75 0h-9.83v-1h9.84zm-14.74 0h-9.84v-1h9.84zm-14.76 0h-9.83v-1h9.83zm-14.75 0h-9.84v-1h9.85zm-14.76 0h-9.84v-1h9.83zm-224.4 0h-6.75v-1H551zm-11.67 0h-9.83v-1h9.83zm-14.75 0h-9.84v-1h9.84zm-14.75 0H500v-1h9.83zm-14.76 0h-9.83v-1h9.83zm-14.75 0h-9.84v-1h9.84zm-14.76 0h-9.83v-1h9.83zm-14.75 0h-9.83v-1h9.84zm-14.74 0h-9.84v-1h9.84zm-14.76 0h-4.92v-1h4.92zm339.34 0h-.84v-1h.84zM859.5 568.92h-.5v-1h.5zM415.88 573.05l-14.26-4.63 14.26-4.64z" fill="#333"/><path d="M416.38 573.74L400 568.42l16.38-5.33zm-13.14-5.32l12.14 3.94v-7.9z" fill="#333"/><use xlink:href="#l" transform="matrix(1,0,0,1,551.0000119917012,557.6173274672174) translate(0.0049999999999954525 14.4)"/><use xlink:href="#m" transform="matrix(1,0,0,1,551.0000119917012,557.6173274672174) translate(47.955 14.4)"/><use xlink:href="#n" transform="matrix(1,0,0,1,551.0000119917012,557.6173274672174) translate(143.85500000000002 14.4)"/><path d="M879.5 680.78h-4.9v-1h4.9zm-9.8 0h-9.8v-1h9.8zm-14.7 0h-9.82v-1h9.8zm-14.72 0h-9.8v-1h9.8zm-14.7 0h-9.82v-1h9.8zm-14.72 0h-9.8v-1h9.8zm-14.7 0h-9.8v-1h9.8zm-14.7 0h-9.82v-1h9.8zm-14.72 0h-9.8v-1h9.8zm-14.7 0h-6.66v-1h6.65zm-217.4-8.34h-6.1v-1h6.1zm-10.97 0h-9.75v-1h9.75zm-14.63 0h-9.75v-1h9.74zm-14.63 0h-9.74v-1h9.75zm-14.62 0h-9.75v-1h9.75zm-14.63 0h-9.75v-1h9.75zm-14.63 0h-9.75v-1h9.75zm-14.63 0h-9.76v-1h9.75zm-14.64 0h-4.88v-1h4.88zM880 680.78h-.5v-1h.5zM415.88 676.58l-14.26-4.64 14.26-4.63z" fill="#333"/><path d="M416.38 677.26L400 671.94l16.38-5.32zm-13.14-5.32l12.14 3.95V668z" fill="#333"/><use xlink:href="#o" transform="matrix(1,0,0,1,534.6250000000001,665.3096812048764) translate(0.0049999999999954525 14.4)"/><use xlink:href="#p" transform="matrix(1,0,0,1,534.6250000000001,665.3096812048764) translate(66.955 14.4)"/><use xlink:href="#q" transform="matrix(1,0,0,1,534.6250000000001,665.3096812048764) translate(132.905 14.4)"/><path d="M537.6 627.88h-8.4v-1h8.4zm-13.3 0h-9.8v-1h9.8zm-14.7 0h-9.83v-1h9.82zm-14.73 0h-9.8v-1h9.8zm-14.72 0h-9.8v-1h9.8zm-14.7 0h-9.82v-1h9.8zm-14.73 0h-9.8v-1h9.8zm-14.7 0h-9.83v-1h9.8zm-14.73 0h-4.92v-1h4.9zm458.2-5.75h-4.93v-1h4.93zm-9.86 0h-9.86v-1h9.86zm-14.8 0H845v-1h9.85zm-14.78 0h-9.86v-1h9.86zm-14.8 0h-9.85v-1h9.87zm-14.78 0h-9.85v-1h9.85zm-14.78 0h-9.86v-1h9.86zm-14.8 0h-9.85v-1h9.86zm-14.78 0h-9.86v-1h9.86zm-14.8 0h-8.92v-1h8.93zM880 622.13h-.5v-1h.5zM415.88 632.02l-14.26-4.64 14.26-4.63z" fill="#333"/><path d="M416.38 632.7L400 627.4l16.38-5.32zm-13.14-5.32l12.14 3.95v-7.9z" fill="#333"/><use xlink:href="#l" transform="matrix(1,0,0,1,537.6000000000001,613.7069169036731) translate(0.0049999999999954525 14.4)"/><use xlink:href="#m" transform="matrix(1,0,0,1,537.6000000000001,613.7069169036731) translate(47.955 14.4)"/><use xlink:href="#r" transform="matrix(1,0,0,1,537.6000000000001,613.7069169036731) translate(143.85500000000002 14.4)"/><path d="M561.34 785.87H400.5v-1h160.84zm297.83-8.96l-.04.86-.9 3.17-1.97 2.58-2.76 1.75-3.27.62H722.2v-1h127.94l2.98-.57 2.45-1.54 1.74-2.3.83-2.87.04-.74zM400.5 785.87h-.5v-1h.5zM863.3 776.38h-9.27l4.64-14.26z" fill="#333"/><path d="M864 776.88h-10.66l5.33-16.38zm-9.28-1h7.9l-3.95-12.14z" fill="#333"/><use xlink:href="#s" transform="matrix(1,0,0,1,561.3421521120295,774.5676375573923) translate(0.0049999999999954525 14.4)"/><use xlink:href="#n" transform="matrix(1,0,0,1,561.3421521120295,774.5676375573923) translate(95.905 14.4)"/><path d="M551.33 824.26H400.5v-1h150.83zm291.8 0H708.16v-1h134.95zM400.5 824.26h-.5v-1h.5zM857.88 823.76l-14.26 4.63v-9.28z" fill="#333"/><path d="M859.5 823.76l-16.38 5.32v-10.65zm-15.38 3.94l12.14-3.94-12.14-3.95z" fill="#333"/><use xlink:href="#s" transform="matrix(1,0,0,1,551.325,812.9564674658914) translate(0.0049999999999954525 14.4)"/><use xlink:href="#r" transform="matrix(1,0,0,1,551.325,812.9564674658914) translate(95.905 14.4)"/><path d="M562.83 883.6H400.5v-1h162.33zm280.3 0H696.66v-1h146.45zM400.5 883.6h-.5v-1h.5zM857.88 883.1l-14.26 4.62v-9.27z" fill="#333"/><path d="M859.5 883.1l-16.38 5.3v-10.63zm-15.38 3.94l12.14-3.95-12.14-3.96z" fill="#333"/><use xlink:href="#t" transform="matrix(1,0,0,1,562.825,872.2896562913461) translate(0.0049999999999954525 14.4)"/><use xlink:href="#u" transform="matrix(1,0,0,1,562.825,872.2896562913461) translate(42.955 14.4)"/><path d="M1032.03 920.5H880.5v-1h151.53zm351.44 0h-135.64v-1h135.64zM880.5 920.5h-.5v-1h.5zM1398.24 920l-14.27 4.63v-9.27z" fill="#333"/><path d="M1399.86 920l-16.4 5.32v-10.64zm-15.4 3.95l12.16-3.95-12.15-3.95z" fill="#333"/><g><use xlink:href="#v" transform="matrix(1,0,0,1,1032.02765267381,909.1990000000003) translate(0.0049999999999954525 14.4)"/><use xlink:href="#w" transform="matrix(1,0,0,1,1032.02765267381,909.1990000000003) translate(47.004999999999995 14.4)"/><use xlink:href="#x" transform="matrix(1,0,0,1,1032.02765267381,909.1990000000003) translate(121.905 14.4)"/><use xlink:href="#y" transform="matrix(1,0,0,1,1032.02765267381,909.1990000000003) translate(145.905 14.4)"/><use xlink:href="#z" transform="matrix(1,0,0,1,1032.02765267381,909.1990000000003) translate(179.905 14.4)"/></g><path d="M880.23 990.03h-5.47v-1h5.47zm-10.46 0h-9.96v-1h9.97zm-14.94 0h-9.97v-1h9.97zm-14.95 0h-9.97v-1h9.98zm-14.95 0h-9.96v-1h9.96zm-14.94 0H800v-1H810zm-14.96 0h-9.97v-1h9.97zm-14.95 0h-9.97v-1h9.96zm-14.96 0h-9.96v-1h9.96zm-14.94 0h-9.97v-1h9.97zm-14.95 0h-9.96v-1h9.95zm-14.95 0h-9.96v-1h9.96zm-14.94 0h-9.97v-1h9.96zm-14.95 0h-9.95v-1h9.96zm-14.94 0h-9.96v-1h9.96zm-14.94 0h-9.97v-1h9.97zm-14.95 0h-9.96v-1h9.97zm-14.95 0h-9.96v-1h9.96zm-14.94 0h-9.97v-1h9.98zm-14.95 0h-9.97v-1h9.97zm-14.95 0h-9.96v-1h9.96zm-14.94 0h-9.97v-1h9.97zm-14.95 0h-9.98v-1h9.97zm-14.96 0h-9.96v-1h9.96zm-14.95 0h-9.97v-1H526zm-14.95 0h-9.97v-1h9.97zm-14.95 0h-9.96v-1h9.96zm-14.95 0h-9.96v-1h9.95zm-14.94 0h-9.96v-1h9.97zm-14.94 0h-9.96v-1h9.96zm-14.95 0h-9.95v-1h9.96zm-14.93 0h-5v-1h5zm998.5-1.1h-5v-1h5zm-10 0h-9.98v-1h9.97zm-14.97 0h-10v-1h10zm-14.98 0h-9.98v-1h9.98zm-14.97 0h-9.98v-1h9.98zm-14.98 0H1340v-1h9.97zm-14.97 0h-9.98v-1h9.98zm-14.97 0h-10v-1h10zm-14.98 0h-9.98v-1h9.98zm-14.97 0h-10v-1h10zm-14.98 0h-9.98v-1h9.98zm-14.97 0h-10v-1h10zm-14.98 0h-9.98v-1h9.98zm-14.97 0h-9.98v-1h9.98zm-14.98 0h-9.98v-1h9.98zm-14.97 0h-9.98v-1h9.98zm-14.97 0h-10v-1h10zm-14.98 0h-9.98v-1h9.98zm-14.97 0h-9.98v-1h10zm-14.97 0h-9.98v-1h9.98zm-14.97 0h-10v-1h10zm-14.98 0h-9.98v-1h9.98zm-14.97 0h-9.97v-1h9.98zm-14.97 0h-9.98v-1h9.98zm-14.97 0h-9.98v-1h9.98zm-14.97 0h-10v-1h10zm-15 0h-9.97v-1h9.98zm-14.96 0h-10v-1h10zm-14.98 0h-9.98v-1h9.98zm-14.97 0h-10v-1h10zm-15 0h-9.97v-1h9.98zm-14.96 0h-9.98v-1h9.98zm-14.98 0h-5.53v-1h5.53z" fill="#333"/><path d="M1420.36 988.94h-.52v-1h.52zM415.88 994.17l-14.26-4.64 14.26-4.63z" fill="#333"/><path d="M416.38 994.86L400 989.53l16.38-5.32zm-13.14-5.33l12.14 3.95v-7.9z" fill="#333"/><g><use xlink:href="#A" transform="matrix(1,0,0,1,880.2276526738098,978.1886682741474) translate(0.004999999999999005 14.4)"/></g><path d="M700.5 883.62h-1V841h1zM700.5 841h-1v-.5h1zM700 898.38l-3.33-10.23v-4.03h7.97z" fill="#333"/><path d="M700 900l-3.33-10.23v-3.24l3.33 10.23 3.95-12.14h-7.28v-1h8.65z" fill="#333"/><path d="M860 430.12c0-4.42 3.58-8 8-8h24c4.42 0 8 3.58 8 8v502.94c0 4.42-3.58 8-8 8h-24c-4.42 0-8-3.58-8-8zM1400.36 908c0-4.42 3.58-8 8-8h24c4.4 0 8 3.58 8 8v84c0 4.42-3.6 8-8 8h-24c-4.42 0-8-3.58-8-8z" stroke="#333" fill="#c1e4f7"/><defs><path fill="#333" d="M160-131c35 5 61 23 61 61C221 17 115-2 30 0v-248c76 3 177-17 177 60 0 33-19 50-47 57zm-97-11c50-1 110 9 110-42 0-47-63-36-110-37v79zm0 115c55-2 124 14 124-45 0-56-70-42-124-44v89" id="B"/><path fill="#333" d="M100-194c63 0 86 42 84 106H49c0 40 14 67 53 68 26 1 43-12 49-29l28 8c-11 28-37 45-77 45C44 4 14-33 15-96c1-61 26-98 85-98zm52 81c6-60-76-77-97-28-3 7-6 17-6 28h103" id="C"/><path fill="#333" d="M117-194c89-4 53 116 60 194h-32v-121c0-31-8-49-39-48C34-167 62-67 57 0H25l-1-190h30c1 10-1 24 2 32 11-22 29-35 61-36" id="D"/><path fill="#333" d="M96-169c-40 0-48 33-48 73s9 75 48 75c24 0 41-14 43-38l32 2c-6 37-31 61-74 61-59 0-76-41-82-99-10-93 101-131 147-64 4 7 5 14 7 22l-32 3c-4-21-16-35-41-35" id="E"/><path fill="#333" d="M106-169C34-169 62-67 57 0H25v-261h32l-1 103c12-21 28-36 61-36 89 0 53 116 60 194h-32v-121c2-32-8-49-39-48" id="F"/><path fill="#333" d="M210-169c-67 3-38 105-44 169h-31v-121c0-29-5-50-35-48C34-165 62-65 56 0H25l-1-190h30c1 10-1 24 2 32 10-44 99-50 107 0 11-21 27-35 58-36 85-2 47 119 55 194h-31v-121c0-29-5-49-35-48" id="G"/><path fill="#333" d="M141-36C126-15 110 5 73 4 37 3 15-17 15-53c-1-64 63-63 125-63 3-35-9-54-41-54-24 1-41 7-42 31l-33-3c5-37 33-52 76-52 45 0 72 20 72 64v82c-1 20 7 32 28 27v20c-31 9-61-2-59-35zM48-53c0 20 12 33 32 33 41-3 63-29 60-74-43 2-92-5-92 41" id="H"/><path fill="#333" d="M114-163C36-179 61-72 57 0H25l-1-190h30c1 12-1 29 2 39 6-27 23-49 58-41v29" id="I"/><path fill="#333" d="M143 0L79-87 56-68V0H24v-261h32v163l83-92h37l-77 82L181 0h-38" id="J"/><path fill="#333" d="M24-231v-30h32v30H24zM24 0v-190h32V0H24" id="K"/><path fill="#333" d="M177-190C167-65 218 103 67 71c-23-6-38-20-44-43l32-5c15 47 100 32 89-28v-30C133-14 115 1 83 1 29 1 15-40 15-95c0-56 16-97 71-98 29-1 48 16 59 35 1-10 0-23 2-32h30zM94-22c36 0 50-32 50-73 0-42-14-75-50-75-39 0-46 34-46 75s6 73 46 73" id="L"/><g id="a"><use transform="matrix(0.06172839506172839,0,0,0.06172839506172839,0,0)" xlink:href="#B"/><use transform="matrix(0.06172839506172839,0,0,0.06172839506172839,14.814814814814813,0)" xlink:href="#C"/><use transform="matrix(0.06172839506172839,0,0,0.06172839506172839,27.160493827160494,0)" xlink:href="#D"/><use transform="matrix(0.06172839506172839,0,0,0.06172839506172839,39.50617283950617,0)" xlink:href="#E"/><use transform="matrix(0.06172839506172839,0,0,0.06172839506172839,50.61728395061728,0)" xlink:href="#F"/><use transform="matrix(0.06172839506172839,0,0,0.06172839506172839,62.962962962962955,0)" xlink:href="#G"/><use transform="matrix(0.06172839506172839,0,0,0.06172839506172839,81.41975308641975,0)" xlink:href="#H"/><use transform="matrix(0.06172839506172839,0,0,0.06172839506172839,93.76543209876543,0)" xlink:href="#I"/><use transform="matrix(0.06172839506172839,0,0,0.06172839506172839,101.11111111111111,0)" xlink:href="#J"/><use transform="matrix(0.06172839506172839,0,0,0.06172839506172839,112.22222222222223,0)" xlink:href="#K"/><use transform="matrix(0.06172839506172839,0,0,0.06172839506172839,117.09876543209877,0)" xlink:href="#D"/><use transform="matrix(0.06172839506172839,0,0,0.06172839506172839,129.44444444444446,0)" xlink:href="#L"/></g><path fill="#333" d="M185-189c-5-48-123-54-124 2 14 75 158 14 163 119 3 78-121 87-175 55-17-10-28-26-33-46l33-7c5 56 141 63 141-1 0-78-155-14-162-118-5-82 145-84 179-34 5 7 8 16 11 25" id="M"/><path fill="#333" d="M84 4C-5 8 30-112 23-190h32v120c0 31 7 50 39 49 72-2 45-101 50-169h31l1 190h-30c-1-10 1-25-2-33-11 22-28 36-60 37" id="N"/><path fill="#333" d="M59-47c-2 24 18 29 38 22v24C64 9 27 4 27-40v-127H5v-23h24l9-43h21v43h35v23H59v120" id="O"/><g id="b"><use transform="matrix(0.06172839506172839,0,0,0.06172839506172839,0,0)" xlink:href="#M"/><use transform="matrix(0.06172839506172839,0,0,0.06172839506172839,14.814814814814813,0)" xlink:href="#N"/><use transform="matrix(0.06172839506172839,0,0,0.06172839506172839,27.160493827160494,0)" xlink:href="#K"/><use transform="matrix(0.06172839506172839,0,0,0.06172839506172839,32.03703703703704,0)" xlink:href="#O"/><use transform="matrix(0.06172839506172839,0,0,0.06172839506172839,38.20987654320988,0)" xlink:href="#C"/></g><path fill="#333" d="M30 0v-248h33v221h125V0H30" id="P"/><path fill="#333" d="M135-143c-3-34-86-38-87 0 15 53 115 12 119 90S17 21 10-45l28-5c4 36 97 45 98 0-10-56-113-15-118-90-4-57 82-63 122-42 12 7 21 19 24 35" id="Q"/><g id="c"><use transform="matrix(0.06172839506172839,0,0,0.06172839506172839,0,0)" xlink:href="#P"/><use transform="matrix(0.06172839506172839,0,0,0.06172839506172839,12.345679012345679,0)" xlink:href="#K"/><use transform="matrix(0.06172839506172839,0,0,0.06172839506172839,17.22222222222222,0)" xlink:href="#Q"/><use transform="matrix(0.06172839506172839,0,0,0.06172839506172839,28.333333333333332,0)" xlink:href="#O"/><use transform="matrix(0.06172839506172839,0,0,0.06172839506172839,34.50617283950617,0)" xlink:href="#C"/><use transform="matrix(0.06172839506172839,0,0,0.06172839506172839,46.85185185185185,0)" xlink:href="#D"/><use transform="matrix(0.06172839506172839,0,0,0.06172839506172839,59.197530864197525,0)" xlink:href="#C"/><use transform="matrix(0.06172839506172839,0,0,0.06172839506172839,71.5432098765432,0)" xlink:href="#I"/></g><path fill="#333" d="M187 0l-14-72H61L19 0h-37l149-248h38L221 0h-34zm-19-99l-22-123L76-99h92" id="R"/><path fill="#333" d="M44-68c0 29 11 47 38 47 30 0 42-19 51-41l28 9C148-21 126 4 82 4 31 4 10-29 12-85c3-77 74-140 146-93 12 8 15 23 18 40l-31 5c-1-22-13-36-36-36-52 0-65 49-65 101" id="S"/><path fill="#333" d="M51-54c-9 22 5 41 31 30L79-1C43 14 10-4 19-52l22-115H19l5-23h22l19-43h21l-9 43h35l-4 23H73" id="T"/><path fill="#333" d="M30-147c31-64 166-65 159 27C183-49 158 1 86 4 9 8 1-88 30-147zM88-20c53 0 68-48 68-100 0-31-11-51-44-50-52 1-68 46-68 97 0 32 13 53 44 53" id="U"/><path fill="#333" d="M66-151c12-25 30-51 66-40l-6 26C45-176 58-65 38 0H6l36-190h30" id="V"/><g id="d"><use transform="matrix(0.04938271604938272,0,0,0.04938271604938272,0,0)" xlink:href="#R"/><use transform="matrix(0.04938271604938272,0,0,0.04938271604938272,11.851851851851853,0)" xlink:href="#S"/><use transform="matrix(0.04938271604938272,0,0,0.04938271604938272,20.74074074074074,0)" xlink:href="#T"/><use transform="matrix(0.04938271604938272,0,0,0.04938271604938272,25.679012345679016,0)" xlink:href="#U"/><use transform="matrix(0.04938271604938272,0,0,0.04938271604938272,35.55555555555556,0)" xlink:href="#V"/></g><path fill="#333" d="M143 4C61 4 22-44 18-125c-5-107 100-154 193-111 17 8 29 25 37 43l-32 9c-13-25-37-40-76-40-61 0-88 39-88 99 0 61 29 100 91 101 35 0 62-11 79-27v-45h-74v-28h105v86C228-13 192 4 143 4" id="W"/><path fill="#333" d="M115-194c55 1 70 41 70 98S169 2 115 4C84 4 66-9 55-30l1 105H24l-1-265h31l2 30c10-21 28-34 59-34zm-8 174c40 0 45-34 45-75s-6-73-45-74c-42 0-51 32-51 76 0 43 10 73 51 73" id="X"/><path fill="#333" d="M232-93c-1 65-40 97-104 97C67 4 28-28 28-90v-158h33c8 89-33 224 67 224 102 0 64-133 71-224h33v155" id="Y"/><path fill="#333" d="M33 0v-248h34V0H33" id="Z"/><path fill="#333" d="M30-248c118-7 216 8 213 122C240-48 200 0 122 0H30v-248zM63-27c89 8 146-16 146-99s-60-101-146-95v194" id="aa"/><g id="e"><use transform="matrix(0.05,0,0,0.05,0,0)" xlink:href="#W"/><use transform="matrix(0.05,0,0,0.05,14,0)" xlink:href="#X"/><use transform="matrix(0.05,0,0,0.05,24,0)" xlink:href="#N"/><use transform="matrix(0.05,0,0,0.05,34,0)" xlink:href="#Y"/><use transform="matrix(0.05,0,0,0.05,46.95,0)" xlink:href="#Y"/><use transform="matrix(0.05,0,0,0.05,59.900000000000006,0)" xlink:href="#Z"/><use transform="matrix(0.05,0,0,0.05,64.9,0)" xlink:href="#aa"/></g><path fill="#333" d="M205 0l-28-72H64L36 0H1l101-248h38L239 0h-34zm-38-99l-47-123c-12 45-31 82-46 123h93" id="ab"/><path fill="#333" d="M24 0v-261h32V0H24" id="ac"/><path fill="#333" d="M108 0H70L1-190h34L89-25l56-165h34" id="ad"/><g id="f"><use transform="matrix(0.05,0,0,0.05,0,0)" xlink:href="#ab"/><use transform="matrix(0.05,0,0,0.05,12,0)" xlink:href="#ac"/><use transform="matrix(0.05,0,0,0.05,15.949999999999998,0)" xlink:href="#O"/><use transform="matrix(0.05,0,0,0.05,20.95,0)" xlink:href="#C"/><use transform="matrix(0.05,0,0,0.05,30.950000000000003,0)" xlink:href="#I"/><use transform="matrix(0.05,0,0,0.05,36.9,0)" xlink:href="#D"/><use transform="matrix(0.05,0,0,0.05,46.9,0)" xlink:href="#H"/><use transform="matrix(0.05,0,0,0.05,56.900000000000006,0)" xlink:href="#O"/><use transform="matrix(0.05,0,0,0.05,61.900000000000006,0)" xlink:href="#K"/><use transform="matrix(0.05,0,0,0.05,65.85,0)" xlink:href="#ad"/><use transform="matrix(0.05,0,0,0.05,74.85,0)" xlink:href="#C"/></g><path fill="#333" d="M26 75v-336h71v23H56V52h41v23H26" id="ae"/><path fill="#333" d="M101-234c-31-9-42 10-38 44h38v23H63V0H32v-167H5v-23h27c-7-52 17-82 69-68v24" id="af"/><g id="g"><use transform="matrix(0.05,0,0,0.05,0,0)" xlink:href="#ae"/><use transform="matrix(0.05,0,0,0.05,5,0)" xlink:href="#Z"/><use transform="matrix(0.05,0,0,0.05,10,0)" xlink:href="#af"/></g><g id="h"><use transform="matrix(0.05,0,0,0.05,0,0)" xlink:href="#L"/><use transform="matrix(0.05,0,0,0.05,10,0)" xlink:href="#K"/><use transform="matrix(0.05,0,0,0.05,13.949999999999998,0)" xlink:href="#ad"/><use transform="matrix(0.05,0,0,0.05,22.95,0)" xlink:href="#C"/><use transform="matrix(0.05,0,0,0.05,32.95,0)" xlink:href="#D"/></g><g id="i"><use transform="matrix(0.05,0,0,0.05,0,0)" xlink:href="#W"/><use transform="matrix(0.05,0,0,0.05,14,0)" xlink:href="#X"/><use transform="matrix(0.05,0,0,0.05,24,0)" xlink:href="#N"/><use transform="matrix(0.05,0,0,0.05,34,0)" xlink:href="#Y"/><use transform="matrix(0.05,0,0,0.05,46.95,0)" xlink:href="#Y"/><use transform="matrix(0.05,0,0,0.05,59.900000000000006,0)" xlink:href="#Z"/><use transform="matrix(0.05,0,0,0.05,64.9,0)" xlink:href="#aa"/></g><path fill="#333" d="M3 75V52h41v-290H3v-23h71V75H3" id="ag"/><g id="j"><use transform="matrix(0.05,0,0,0.05,0,0)" xlink:href="#af"/><use transform="matrix(0.05,0,0,0.05,5,0)" xlink:href="#I"/><use transform="matrix(0.05,0,0,0.05,10.95,0)" xlink:href="#C"/><use transform="matrix(0.05,0,0,0.05,20.95,0)" xlink:href="#C"/><use transform="matrix(0.05,0,0,0.05,30.950000000000003,0)" xlink:href="#ag"/></g><path fill="#333" d="M30 0v-248h187v28H63v79h144v27H63v87h162V0H30" id="ah"/><g id="k"><use transform="matrix(0.05,0,0,0.05,0,0)" xlink:href="#ae"/><use transform="matrix(0.05,0,0,0.05,5,0)" xlink:href="#ah"/><use transform="matrix(0.05,0,0,0.05,17,0)" xlink:href="#ac"/><use transform="matrix(0.05,0,0,0.05,20.95,0)" xlink:href="#Q"/><use transform="matrix(0.05,0,0,0.05,29.950000000000003,0)" xlink:href="#C"/><use transform="matrix(0.05,0,0,0.05,39.95,0)" xlink:href="#ag"/></g><g id="l"><use transform="matrix(0.05,0,0,0.05,0,0)" xlink:href="#ah"/><use transform="matrix(0.05,0,0,0.05,12,0)" xlink:href="#D"/><use transform="matrix(0.05,0,0,0.05,22,0)" xlink:href="#O"/><use transform="matrix(0.05,0,0,0.05,27,0)" xlink:href="#C"/><use transform="matrix(0.05,0,0,0.05,37,0)" xlink:href="#I"/></g><g id="m"><use transform="matrix(0.05,0,0,0.05,0,0)" xlink:href="#B"/><use transform="matrix(0.05,0,0,0.05,12,0)" xlink:href="#C"/><use transform="matrix(0.05,0,0,0.05,22,0)" xlink:href="#D"/><use transform="matrix(0.05,0,0,0.05,32,0)" xlink:href="#E"/><use transform="matrix(0.05,0,0,0.05,41,0)" xlink:href="#F"/><use transform="matrix(0.05,0,0,0.05,51,0)" xlink:href="#G"/><use transform="matrix(0.05,0,0,0.05,65.95,0)" xlink:href="#H"/><use transform="matrix(0.05,0,0,0.05,75.95,0)" xlink:href="#I"/><use transform="matrix(0.05,0,0,0.05,81.9,0)" xlink:href="#J"/></g><g id="n"><use transform="matrix(0.05,0,0,0.05,0,0)" xlink:href="#M"/><use transform="matrix(0.05,0,0,0.05,12,0)" xlink:href="#C"/><use transform="matrix(0.05,0,0,0.05,22,0)" xlink:href="#O"/><use transform="matrix(0.05,0,0,0.05,27,0)" xlink:href="#O"/><use transform="matrix(0.05,0,0,0.05,32,0)" xlink:href="#K"/><use transform="matrix(0.05,0,0,0.05,35.95,0)" xlink:href="#D"/><use transform="matrix(0.05,0,0,0.05,45.95,0)" xlink:href="#L"/><use transform="matrix(0.05,0,0,0.05,55.95,0)" xlink:href="#Q"/></g><path fill="#333" d="M212-179c-10-28-35-45-73-45-59 0-87 40-87 99 0 60 29 101 89 101 43 0 62-24 78-52l27 14C228-24 195 4 139 4 59 4 22-46 18-125c-6-104 99-153 187-111 19 9 31 26 39 46" id="ai"/><path fill="#333" d="M100-194c62-1 85 37 85 99 1 63-27 99-86 99S16-35 15-95c0-66 28-99 85-99zM99-20c44 1 53-31 53-75 0-43-8-75-51-75s-53 32-53 75 10 74 51 75" id="aj"/><g id="o"><use transform="matrix(0.05,0,0,0.05,0,0)" xlink:href="#ai"/><use transform="matrix(0.05,0,0,0.05,12.950000000000001,0)" xlink:href="#F"/><use transform="matrix(0.05,0,0,0.05,22.950000000000003,0)" xlink:href="#aj"/><use transform="matrix(0.05,0,0,0.05,32.95,0)" xlink:href="#aj"/><use transform="matrix(0.05,0,0,0.05,42.95,0)" xlink:href="#Q"/><use transform="matrix(0.05,0,0,0.05,51.95,0)" xlink:href="#C"/></g><g id="p"><use transform="matrix(0.05,0,0,0.05,0,0)" xlink:href="#H"/><use transform="matrix(0.05,0,0,0.05,10,0)" xlink:href="#D"/><use transform="matrix(0.05,0,0,0.05,20,0)" xlink:href="#aj"/><use transform="matrix(0.05,0,0,0.05,30,0)" xlink:href="#O"/><use transform="matrix(0.05,0,0,0.05,35,0)" xlink:href="#F"/><use transform="matrix(0.05,0,0,0.05,45,0)" xlink:href="#C"/><use transform="matrix(0.05,0,0,0.05,55,0)" xlink:href="#I"/></g><g id="q"><use transform="matrix(0.05,0,0,0.05,0,0)" xlink:href="#W"/><use transform="matrix(0.05,0,0,0.05,14,0)" xlink:href="#X"/><use transform="matrix(0.05,0,0,0.05,24,0)" xlink:href="#N"/><use transform="matrix(0.05,0,0,0.05,34,0)" xlink:href="#Y"/><use transform="matrix(0.05,0,0,0.05,46.95,0)" xlink:href="#Y"/><use transform="matrix(0.05,0,0,0.05,59.900000000000006,0)" xlink:href="#Z"/><use transform="matrix(0.05,0,0,0.05,64.9,0)" xlink:href="#aa"/></g><path fill="#333" d="M30-248c87 1 191-15 191 75 0 78-77 80-158 76V0H30v-248zm33 125c57 0 124 11 124-50 0-59-68-47-124-48v98" id="ak"/><g id="r"><use transform="matrix(0.05,0,0,0.05,0,0)" xlink:href="#ak"/><use transform="matrix(0.05,0,0,0.05,12,0)" xlink:href="#I"/><use transform="matrix(0.05,0,0,0.05,17.95,0)" xlink:href="#C"/><use transform="matrix(0.05,0,0,0.05,27.950000000000003,0)" xlink:href="#Q"/><use transform="matrix(0.05,0,0,0.05,36.95,0)" xlink:href="#C"/><use transform="matrix(0.05,0,0,0.05,46.95,0)" xlink:href="#O"/><use transform="matrix(0.05,0,0,0.05,51.95,0)" xlink:href="#Q"/></g><g id="s"><use transform="matrix(0.05,0,0,0.05,0,0)" xlink:href="#B"/><use transform="matrix(0.05,0,0,0.05,12,0)" xlink:href="#C"/><use transform="matrix(0.05,0,0,0.05,22,0)" xlink:href="#D"/><use transform="matrix(0.05,0,0,0.05,32,0)" xlink:href="#E"/><use transform="matrix(0.05,0,0,0.05,41,0)" xlink:href="#F"/><use transform="matrix(0.05,0,0,0.05,51,0)" xlink:href="#G"/><use transform="matrix(0.05,0,0,0.05,65.95,0)" xlink:href="#H"/><use transform="matrix(0.05,0,0,0.05,75.95,0)" xlink:href="#I"/><use transform="matrix(0.05,0,0,0.05,81.9,0)" xlink:href="#J"/></g><g id="t"><use transform="matrix(0.05,0,0,0.05,0,0)" xlink:href="#M"/><use transform="matrix(0.05,0,0,0.05,12,0)" xlink:href="#O"/><use transform="matrix(0.05,0,0,0.05,17,0)" xlink:href="#H"/><use transform="matrix(0.05,0,0,0.05,27,0)" xlink:href="#I"/><use transform="matrix(0.05,0,0,0.05,32.95,0)" xlink:href="#O"/></g><g id="u"><use transform="matrix(0.05,0,0,0.05,0,0)" xlink:href="#B"/><use transform="matrix(0.05,0,0,0.05,12,0)" xlink:href="#C"/><use transform="matrix(0.05,0,0,0.05,22,0)" xlink:href="#D"/><use transform="matrix(0.05,0,0,0.05,32,0)" xlink:href="#E"/><use transform="matrix(0.05,0,0,0.05,41,0)" xlink:href="#F"/><use transform="matrix(0.05,0,0,0.05,51,0)" xlink:href="#G"/><use transform="matrix(0.05,0,0,0.05,65.95,0)" xlink:href="#H"/><use transform="matrix(0.05,0,0,0.05,75.95,0)" xlink:href="#I"/><use transform="matrix(0.05,0,0,0.05,81.9,0)" xlink:href="#J"/></g><path fill="#333" d="M85-194c31 0 48 13 60 33l-1-100h32l1 261h-30c-2-10 0-23-3-31C134-8 116 4 85 4 32 4 16-35 15-94c0-66 23-100 70-100zm9 24c-40 0-46 34-46 75 0 40 6 74 45 74 42 0 51-32 51-76 0-42-9-74-50-73" id="al"/><g id="v"><use transform="matrix(0.05,0,0,0.05,0,0)" xlink:href="#M"/><use transform="matrix(0.05,0,0,0.05,12,0)" xlink:href="#C"/><use transform="matrix(0.05,0,0,0.05,22,0)" xlink:href="#D"/><use transform="matrix(0.05,0,0,0.05,32,0)" xlink:href="#al"/></g><g id="w"><use transform="matrix(0.05,0,0,0.05,0,0)" xlink:href="#X"/><use transform="matrix(0.05,0,0,0.05,10,0)" xlink:href="#I"/><use transform="matrix(0.05,0,0,0.05,15.949999999999998,0)" xlink:href="#aj"/><use transform="matrix(0.05,0,0,0.05,25.950000000000003,0)" xlink:href="#L"/><use transform="matrix(0.05,0,0,0.05,35.95,0)" xlink:href="#I"/><use transform="matrix(0.05,0,0,0.05,41.900000000000006,0)" xlink:href="#C"/><use transform="matrix(0.05,0,0,0.05,51.900000000000006,0)" xlink:href="#Q"/><use transform="matrix(0.05,0,0,0.05,60.900000000000006,0)" xlink:href="#Q"/></g><g id="x"><use transform="matrix(0.05,0,0,0.05,0,0)" xlink:href="#H"/><use transform="matrix(0.05,0,0,0.05,10,0)" xlink:href="#Q"/></g><g id="y"><use transform="matrix(0.05,0,0,0.05,0,0)" xlink:href="#ab"/><use transform="matrix(0.05,0,0,0.05,12,0)" xlink:href="#ak"/><use transform="matrix(0.05,0,0,0.05,24,0)" xlink:href="#Z"/></g><g id="z"><use transform="matrix(0.05,0,0,0.05,0,0)" xlink:href="#E"/><use transform="matrix(0.05,0,0,0.05,9,0)" xlink:href="#H"/><use transform="matrix(0.05,0,0,0.05,19,0)" xlink:href="#ac"/><use transform="matrix(0.05,0,0,0.05,22.95,0)" xlink:href="#ac"/><use transform="matrix(0.05,0,0,0.05,26.899999999999995,0)" xlink:href="#Q"/></g><path fill="#333" d="M233-177c-1 41-23 64-60 70L243 0h-38l-65-103H63V0H30v-248c88 3 205-21 203 71zM63-129c60-2 137 13 137-47 0-61-80-42-137-45v92" id="am"/><g id="A"><use transform="matrix(0.05,0,0,0.05,0,0)" xlink:href="#am"/><use transform="matrix(0.05,0,0,0.05,12.950000000000001,0)" xlink:href="#C"/><use transform="matrix(0.05,0,0,0.05,22.950000000000003,0)" xlink:href="#Q"/><use transform="matrix(0.05,0,0,0.05,31.950000000000003,0)" xlink:href="#N"/><use transform="matrix(0.05,0,0,0.05,41.95,0)" xlink:href="#ac"/><use transform="matrix(0.05,0,0,0.05,45.900000000000006,0)" xlink:href="#O"/><use transform="matrix(0.05,0,0,0.05,50.900000000000006,0)" xlink:href="#Q"/></g></defs></g></svg>