<svg xmlns="http://www.w3.org/2000/svg" xmlns:xlink="http://www.w3.org/1999/xlink" xmlns:lucid="lucid" width="1624" height="1303"><g transform="translate(0 -24)" lucid:page-tab-id="0_0"><path d="M370 325.36v10.05m0 10.06v20.1m0 10.04v20.1m0 10.04v20.1m0 10.05v20.08m0 10.05v20.1m0 10.04v20.1m0 10.04v20.1m0 10.06v20.1m0 10.04v20.1m0 10.04v20.1m0 10.04v20.1m0 10.05v20.1m0 10.04v20.1m0 10.04v20.1m0 10.06v20.1m0 10.04v20.1m0 10.04v20.1m0 10.04v20.1m0 10.05v20.1m0 10.04v20.1m0 10.04v20.1m0 10.05v20.1m0 10.05v20.1m0 10.04v20.1m0 10.04v20.1m0 10.04v20.1m0 10.05v20.1m0 10.04v20.1m0 10.05v10.05" stroke="#333" fill="none"/><path d="M370.5 325.38h-1v-.52h1z" fill="#333"/><path d="M370 1199.5v.5M1420.36 325.36v10.17m0 10.17v20.34m0 10.16v20.34m0 10.17v20.35m0 10.16v20.35m0 10.17v20.34m0 10.16v20.34m0 10.17v20.34m0 10.16v20.34m0 10.17v20.34m0 10.16v20.34m0 10.17v20.34m0 10.15v20.34m0 10.16v20.33m0 10.16v20.34m0 10.17v20.33m0 10.17v20.34m0 10.18v20.33m0 10.18v20.34m0 10.17v20.32m0 10.17v20.33m0 10.17v20.33m0 10.17v20.34m0 10.17v20.34m0 10.17v20.35m0 10.17v20.33m0 10.17v20.34m0 10.17v20.33m0 10.17v10.17" stroke="#333" fill="none"/><path d="M1420.86 325.38h-1v-.52h1z" fill="#333"/><path d="M1420.36 1179.5v.5" stroke="#333" fill="none"/><path d="M274.96 210.86c0-4.42 3.58-8 8-8h174.08c4.42 0 8 3.58 8 8v106c0 4.42-3.58 8-8 8H282.96c-4.42 0-8-3.58-8-8z" stroke="#000" stroke-opacity="0" fill="#83bbe5"/><use xlink:href="#a" transform="matrix(1,0,0,1,282.96238093507657,210.86302210073995) translate(44.32098765432099 44.111111111111114)"/><use xlink:href="#b" transform="matrix(1,0,0,1,282.96238093507657,210.86302210073995) translate(44.32098765432099 70.77777777777777)"/><path d="M1325.32 210.86c0-4.42 3.58-8 8-8h174.07c4.4 0 8 3.58 8 8v106c0 4.42-3.6 8-8 8H1333.3c-4.42 0-8-3.58-8-8z" stroke="#000" stroke-opacity="0" fill="#83bbe5"/><use xlink:href="#c" transform="matrix(1,0,0,1,1333.3176862826967,210.86302210073995) translate(48.05555555555556 57.44444444444444)"/><path d="M115.14 219.75c0 10.9-8.84 19.75-19.75 19.75-10.9 0-19.76-8.84-19.76-19.75 0-10.9 8.85-19.75 19.75-19.75s19.74 8.84 19.74 19.75z" stroke="#333" fill="#fff"/><path d="M95.4 239.5v47.3c0 4.42 1.9 11.03 4.27 14.76L135.4 358m-40-63.2l-40 63.2m0-98.75h80" stroke="#333" fill="none"/><path d="M55.4 208c0-4.42 3.57-8 8-8h64c4.4 0 8 3.58 8 8v164c0 4.42-3.6 8-8 8h-64c-4.43 0-8-3.58-8-8z" fill="none"/><use xlink:href="#d" transform="matrix(1,0,0,1,-24.607075587456336,358) translate(99.28395061728395 14.555555555555555)"/><path d="M95.9 295.73l2.84 1.15 1.26 2.8v10.16m0 10v20m0 9.98v20m0 10v19.98m0 10v20m0 10v19.98m0 10v20m0 10v19.98m0 10v20m0 9.98v20m0 10v19.98m0 10v20m0 10v19.98m0 10v20m0 10v19.98m0 10v20m0 9.98v20m0 10v19.98m0 10v20m0 10v19.98m0 10v20m0 10v19.98m0 10v20m0 9.98v20m0 10v19.98m0 10v20m0 10v19.98m0 10v20m0 10v19.98m0 10v20m0 9.98v10M95.9 295.73h-3.5M100 1199.5v.5" stroke="#333" fill="none"/><path d="M175.88 487.58H100.5v-1h75.38zm157.24-7.08h-59.5v-1h59.5zM100.5 487.58h-.5v-1h.5zM347.88 480l-14.26 4.63v-9.27z" fill="#333"/><path d="M349.5 480l-16.38 5.32v-10.64zm-15.38 3.95l12.14-3.95-12.14-3.95z" fill="#333"/><use xlink:href="#e" transform="matrix(1,0,0,1,175.875,472.7375578450922) translate(0.005000000000002558 14.4)"/><path d="M719.64 325.36v10.35m0 10.35v20.68m0 10.34v20.7m0 10.33v20.68m0 10.35v20.68m0 10.35v20.7m0 10.33v20.68m0 10.35v20.7m0 10.33v20.7m0 10.33v20.68m0 10.35v20.67m0 10.34V677m0 10.34v20.68m0 10.35v20.68m0 10.34v10.34l.8 1.9 1.9.8 1.9.78.8 1.9v10.35m0 10.34v20.7m0 10.34v20.68m0 10.35v20.68m0 10.34v20.68m0 10.34v20.68m0 10.35v20.68m0 10.34v20.7m0 10.33v20.68m0 10.34v20.7m0 10.33v20.7m0 10.33v20.68m0 10.34v20.7m0 10.33v20.7m0 10.33v10.34" stroke="#333" fill="none"/><path d="M720.14 325.38h-1v-.52h1z" fill="#333"/><path d="M725.04 1199.5v.5" stroke="#333" fill="none"/><path d="M624.6 210.86c0-4.42 3.6-8 8-8H806.7c4.42 0 8 3.58 8 8v106c0 4.42-3.58 8-8 8H632.6c-4.4 0-8-3.58-8-8z" stroke="#000" stroke-opacity="0" fill="#83bbe5"/><use xlink:href="#f" transform="matrix(1,0,0,1,632.6070755874563,210.86302210073995) translate(16.604938271604937 44.111111111111114)"/><use xlink:href="#g" transform="matrix(1,0,0,1,632.6070755874563,210.86302210073995) translate(62.22222222222222 70.77777777777777)"/><path d="M445.9 500.5h-75.4v-1h75.4zm237.22 0H623.6v-1h59.52zM370.5 500.5h-.5v-1h.5zM697.88 500l-14.26 4.64v-9.28z" fill="#333"/><path d="M699.5 500l-16.38 5.32v-10.64zm-15.38 3.95l12.14-3.95-12.14-3.95z" fill="#333"/><use xlink:href="#h" transform="matrix(1,0,0,1,445.9,489.2) translate(0.0049999999999954525 14.4)"/><path d="M1070.5 1179.5h-1v-10.17h1zm0-20.34h-1v-20.33h1zm0-30.5h-1v-20.34h1zm0-30.5h-1v-20.34h1zm0-30.5h-1v-20.35h1zm0-30.52h-1v-20.33h1zm0-30.5h-1V986.3h1zm0-30.5h-1V955.8h1zm0-30.5h-1v-20.35h1zm0-30.52h-1V894.8h1zm0-30.5h-1v-20.34h1zm0-30.5h-1v-20.34h1zm0-30.5h-1v-14.05h1zm0-35.65h-1v-15.2h1zm0-25.37h-1v-20.34h1zm0-30.5h-1v-20.34h1zm0-30.5h-1v-20.35h1zm0-30.5h-1v-20.35h1zm0-30.52h-1v-20.34h1zm0-30.5h-1v-20.34h1zm0-30.5h-1v-20.35h1zm0-30.5h-1v-20.35h1zm0-30.52h-1v-20.34h1zm0-30.5h-1v-20.34h1zm0-30.5h-1V437.2h1zm0-30.5h-1V406.7h1zm0-30.52h-1V376.2h1zm0-30.5h-1V345.7h1zm0-30.5h-1v-10.18h1z" fill="#333"/><path d="M1070.5 325.38h-1v-.52h1zM1070.5 1180h-1v-.5h1z" fill="#333"/><path d="M974.96 210.86c0-4.42 3.58-8 8-8h174.08c4.42 0 8 3.58 8 8v106c0 4.42-3.58 8-8 8H982.96c-4.42 0-8-3.58-8-8z" stroke="#000" stroke-opacity="0" fill="#83bbe5"/><use xlink:href="#i" transform="matrix(1,0,0,1,982.9623809350766,210.86302210073995) translate(31.388888888888886 44.111111111111114)"/><use xlink:href="#j" transform="matrix(1,0,0,1,982.9623809350766,210.86302210073995) translate(45.216049382716044 70.77777777777777)"/><path d="M833.65 521.7h-113.5v-1h113.5zm199.47-1.2H935.5v-1h97.62z" fill="#333"/><path d="M720.16 521.7h-.52v-1h.52zM1047.88 520l-14.26 4.64v-9.28z" fill="#333"/><path d="M1049.5 520l-16.38 5.32v-10.64zm-15.38 3.95l12.14-3.95-12.14-3.95z" fill="#333"/><use xlink:href="#k" transform="matrix(1,0,0,1,833.6473473261899,509.80125385995524) translate(0.005000000000002558 14.4)"/><path d="M835.65 570.9h-115.5v-1h115.5zm197.47-1.5H933.5v-1h99.62z" fill="#333"/><path d="M720.16 570.9h-.52v-1h.52zM1047.88 568.9l-14.26 4.62v-9.27z" fill="#333"/><path d="M1049.5 568.9l-16.38 5.3v-10.63zm-15.38 3.94l12.14-3.95-12.14-3.96z" fill="#333"/><use xlink:href="#l" transform="matrix(1,0,0,1,835.6473473261899,558.8407786430238) translate(0.005000000000002558 14.4)"/><path d="M1069.5 647.24h-10.73v-1h10.73zm-21.45 0h-21.45v-1h21.45zm-32.18 0h-2.45v-1h2.45zm-220.32-6.74h-19.33v-1h19.33zm-29 0h-9.67v-1h9.67zM1070 647.24h-.5v-1h.5zM756.38 644.64L742.12 640l14.26-4.64z" fill="#333"/><path d="M756.88 645.32L740.5 640l16.38-5.32zM743.74 640l12.14 3.95v-7.9z" fill="#333"/><use xlink:href="#m" transform="matrix(1,0,0,1,797.075,632.5678422254759) translate(0.0049999999999954525 14.4)"/><use xlink:href="#n" transform="matrix(1,0,0,1,797.075,632.5678422254759) translate(164.405 14.4)"/><path d="M155.88 720.5H100.5v-1h55.38zm177.24 0h-39.5v-1h39.5zM100.5 720.5h-.5v-1h.5zM347.88 720l-14.26 4.63v-9.27z" fill="#333"/><path d="M349.5 720l-16.38 5.32v-10.64zm-15.38 3.95l12.14-3.95-12.14-3.95z" fill="#333"/><use xlink:href="#o" transform="matrix(1,0,0,1,155.875,709.1990000000002) translate(0.0049999999999954525 14.4)"/><path d="M465.88 760.5H370.5v-1h95.38zm217.24 0h-79.5v-1h79.5zM370.5 760.5h-.5v-1h.5zM697.88 760l-14.26 4.64v-9.28z" fill="#333"/><path d="M699.5 760l-16.38 5.32v-10.64zm-15.38 3.95l12.14-3.95-12.14-3.95z" fill="#333"/><use xlink:href="#o" transform="matrix(1,0,0,1,465.875,749.2) translate(0.0049999999999954525 14.4)"/><path d="M1383.47 799.5v1H1206.7v-1zm-657.93-1.46v-1H918.2v1z" fill="#333"/><path d="M725.55 798.04h-.5v-1h.5zM1398.24 800l-14.27 4.64v-9.28z" fill="#333"/><path d="M1399.86 800l-16.4 5.32v-10.64zm-15.4 3.95l12.16-3.95-12.15-3.95z" fill="#333"/><use xlink:href="#p" transform="matrix(1,0,0,1,918.1964622062717,787.9675245021667) translate(0.0049999999999954525 14.4)"/><use xlink:href="#q" transform="matrix(1,0,0,1,918.1964622062717,787.9675245021667) translate(71.855 14.4)"/><use xlink:href="#r" transform="matrix(1,0,0,1,918.1964622062717,787.9675245021667) translate(166.705 14.4)"/><use xlink:href="#s" transform="matrix(1,0,0,1,918.1964622062717,787.9675245021667) translate(214.65500000000003 14.4)"/><use xlink:href="#t" transform="matrix(1,0,0,1,918.1964622062717,787.9675245021667) translate(248.65500000000003 14.4)"/><path d="M1419.86 912.8h-9.97v-1h9.96zm-19.94 0H1380v-1h19.92zm-29.9 0h-19.93v-1H1370zm-29.9 0h-19.93v-1h19.92zm-29.9 0h-19.93v-1h19.93zm-29.9 0h-19.93v-1h19.93zm-29.9 0h-19.92v-1h19.93zm-29.9 0h-19.92v-1h19.93zm-29.9 0h-19.92v-1h19.93zm-29.9 0h-19.92v-1h19.93zm-29.9 0h-19.92v-1h19.93zm-29.9 0H1081v-1h19.93zm-29.88 0h-19.94v-1h19.94zm-29.9 0h-19.94v-1h19.94zm-29.9 0H991.3v-1h19.94zm-29.9 0h-13.06v-1h13.06zm-138.76-12.3h-15.1v-1h15.1zm-25.37 0h-20.5v-1h20.5zm-30.76 0h-20.52v-1h20.52zm-30.78 0h-20.5v-1h20.5zm-30.77 0h-20.53v-1h20.52zm-30.78 0H673.6v-1h20.52zm-30.78 0h-20.52v-1h20.52zm-30.77 0h-20.52v-1h20.52zm-30.78 0h-20.53v-1h20.52zm-30.78 0H550.5v-1h20.52zm-30.78 0h-20.52v-1h20.52zm-30.77 0h-20.52v-1h20.52zm-30.78 0h-20.52v-1h20.5zm-30.78 0H427.4v-1h20.52zm-30.78 0h-10.26v-1h10.26z" fill="#333"/><path d="M1420.36 912.8h-.52v-1h.52zM406.38 904.63L392.12 900l14.26-4.64z" fill="#333"/><path d="M406.88 905.32L390.5 900l16.38-5.32zM393.74 900l12.14 3.95v-7.9z" fill="#333"/><use xlink:href="#u" transform="matrix(1,0,0,1,842.57765267381,895.3459402321619) translate(0.005000000000002558 14.4)"/><path d="M156.35 1000.5H100.5v-1h55.85zm176.77 0h-39.97v-1h39.97zM100.5 1000.5h-.5v-1h.5zM347.88 1000l-14.26 4.63v-9.27z" fill="#333"/><path d="M349.5 1000l-16.38 5.32v-10.64zm-15.38 3.95l12.14-3.95-12.14-3.95z" fill="#333"/><use xlink:href="#v" transform="matrix(1,0,0,1,156.35000000000002,989.199) translate(0.0049999999999954525 14.4)"/><path d="M466.35 1037H370.5v-1h95.85zm216.77 0h-79.97v-1h79.97zM370.5 1037h-.5v-1h.5zM697.88 1036.5l-14.26 4.63v-9.27z" fill="#333"/><path d="M699.5 1036.5l-16.38 5.32v-10.65zm-15.38 3.94l12.14-3.94-12.14-3.95z" fill="#333"/><use xlink:href="#v" transform="matrix(1,0,0,1,466.35,1025.6961036727146) translate(0.0049999999999954525 14.4)"/><path d="M369.5 941.56h-9.7v-1h9.7zm-19.43 0h-19.42v-1h19.42zm-29.13 0h-3.1v-1h3.1zm-152.9-20h-13.4v-1h13.4zm-24.58 0h-11.18v-1h11.18zM370 941.56h-.5v-1h.5zM131.78 925.7l-14.27-4.64 14.28-4.64z" fill="#333"/><path d="M132.28 926.38l-16.4-5.32 16.4-5.32zm-13.15-5.32l12.15 3.95v-7.9z" fill="#333"/><g><use xlink:href="#w" transform="matrix(1,0,0,1,168.04646220627183,920.2600174902716) translate(0.0049999999999954525 14.4)"/><use xlink:href="#x" transform="matrix(1,0,0,1,168.04646220627183,920.2600174902716) translate(60.905 14.4)"/><use xlink:href="#y" transform="matrix(1,0,0,1,168.04646220627183,920.2600174902716) translate(94.855 14.4)"/><use xlink:href="#z" transform="matrix(1,0,0,1,168.04646220627183,920.2600174902716) translate(114.855 14.4)"/></g><path d="M75.4 428c0-4.42 3.57-8 8-8h24c4.4 0 8 3.58 8 8v584c0 4.42-3.6 8-8 8h-24c-4.43 0-8-3.58-8-8zM350 468c0-4.42 3.58-8 8-8h24c4.42 0 8 3.58 8 8v604c0 4.42-3.58 8-8 8h-24c-4.42 0-8-3.58-8-8zM700 468c0-4.42 3.58-8 8-8h24c4.42 0 8 3.58 8 8v584c0 4.42-3.58 8-8 8h-24c-4.42 0-8-3.58-8-8zM1050 508c0-4.42 3.58-8 8-8h24c4.42 0 8 3.58 8 8v144c0 4.42-3.58 8-8 8h-24c-4.42 0-8-3.58-8-8zM1400.36 788c0-4.42 3.58-8 8-8h24c4.4 0 8 3.58 8 8v124c0 4.42-3.6 8-8 8h-24c-4.42 0-8-3.58-8-8z" stroke="#333" fill="#fff"/><defs><path fill="#333" d="M33 0v-248h34V0H33" id="A"/><path fill="#333" d="M117-194c89-4 53 116 60 194h-32v-121c0-31-8-49-39-48C34-167 62-67 57 0H25l-1-190h30c1 10-1 24 2 32 11-22 29-35 61-36" id="B"/><path fill="#333" d="M59-47c-2 24 18 29 38 22v24C64 9 27 4 27-40v-127H5v-23h24l9-43h21v43h35v23H59v120" id="C"/><path fill="#333" d="M100-194c63 0 86 42 84 106H49c0 40 14 67 53 68 26 1 43-12 49-29l28 8c-11 28-37 45-77 45C44 4 14-33 15-96c1-61 26-98 85-98zm52 81c6-60-76-77-97-28-3 7-6 17-6 28h103" id="D"/><path fill="#333" d="M114-163C36-179 61-72 57 0H25l-1-190h30c1 12-1 29 2 39 6-27 23-49 58-41v29" id="E"/><path fill="#333" d="M101-234c-31-9-42 10-38 44h38v23H63V0H32v-167H5v-23h27c-7-52 17-82 69-68v24" id="F"/><path fill="#333" d="M141-36C126-15 110 5 73 4 37 3 15-17 15-53c-1-64 63-63 125-63 3-35-9-54-41-54-24 1-41 7-42 31l-33-3c5-37 33-52 76-52 45 0 72 20 72 64v82c-1 20 7 32 28 27v20c-31 9-61-2-59-35zM48-53c0 20 12 33 32 33 41-3 63-29 60-74-43 2-92-5-92 41" id="G"/><path fill="#333" d="M96-169c-40 0-48 33-48 73s9 75 48 75c24 0 41-14 43-38l32 2c-6 37-31 61-74 61-59 0-76-41-82-99-10-93 101-131 147-64 4 7 5 14 7 22l-32 3c-4-21-16-35-41-35" id="H"/><g id="a"><use transform="matrix(0.06172839506172839,0,0,0.06172839506172839,0,0)" xlink:href="#A"/><use transform="matrix(0.06172839506172839,0,0,0.06172839506172839,6.172839506172839,0)" xlink:href="#B"/><use transform="matrix(0.06172839506172839,0,0,0.06172839506172839,18.51851851851852,0)" xlink:href="#C"/><use transform="matrix(0.06172839506172839,0,0,0.06172839506172839,24.691358024691358,0)" xlink:href="#D"/><use transform="matrix(0.06172839506172839,0,0,0.06172839506172839,37.03703703703704,0)" xlink:href="#E"/><use transform="matrix(0.06172839506172839,0,0,0.06172839506172839,44.382716049382715,0)" xlink:href="#F"/><use transform="matrix(0.06172839506172839,0,0,0.06172839506172839,50.55555555555556,0)" xlink:href="#G"/><use transform="matrix(0.06172839506172839,0,0,0.06172839506172839,62.901234567901234,0)" xlink:href="#H"/><use transform="matrix(0.06172839506172839,0,0,0.06172839506172839,74.01234567901234,0)" xlink:href="#D"/></g><path fill="#333" d="M185-189c-5-48-123-54-124 2 14 75 158 14 163 119 3 78-121 87-175 55-17-10-28-26-33-46l33-7c5 56 141 63 141-1 0-78-155-14-162-118-5-82 145-84 179-34 5 7 8 16 11 25" id="I"/><path fill="#333" d="M143 0L79-87 56-68V0H24v-261h32v163l83-92h37l-77 82L181 0h-38" id="J"/><path fill="#333" d="M24 0v-261h32V0H24" id="K"/><path fill="#333" d="M100-194c62-1 85 37 85 99 1 63-27 99-86 99S16-35 15-95c0-66 28-99 85-99zM99-20c44 1 53-31 53-75 0-43-8-75-51-75s-53 32-53 75 10 74 51 75" id="L"/><g id="b"><use transform="matrix(0.06172839506172839,0,0,0.06172839506172839,0,0)" xlink:href="#I"/><use transform="matrix(0.06172839506172839,0,0,0.06172839506172839,14.814814814814813,0)" xlink:href="#J"/><use transform="matrix(0.06172839506172839,0,0,0.06172839506172839,25.925925925925924,0)" xlink:href="#D"/><use transform="matrix(0.06172839506172839,0,0,0.06172839506172839,38.2716049382716,0)" xlink:href="#K"/><use transform="matrix(0.06172839506172839,0,0,0.06172839506172839,43.148148148148145,0)" xlink:href="#D"/><use transform="matrix(0.06172839506172839,0,0,0.06172839506172839,55.49382716049382,0)" xlink:href="#C"/><use transform="matrix(0.06172839506172839,0,0,0.06172839506172839,61.666666666666664,0)" xlink:href="#L"/><use transform="matrix(0.06172839506172839,0,0,0.06172839506172839,74.01234567901234,0)" xlink:href="#B"/></g><path fill="#333" d="M30 0v-248h33v221h125V0H30" id="M"/><path fill="#333" d="M24-231v-30h32v30H24zM24 0v-190h32V0H24" id="N"/><path fill="#333" d="M135-143c-3-34-86-38-87 0 15 53 115 12 119 90S17 21 10-45l28-5c4 36 97 45 98 0-10-56-113-15-118-90-4-57 82-63 122-42 12 7 21 19 24 35" id="O"/><g id="c"><use transform="matrix(0.06172839506172839,0,0,0.06172839506172839,0,0)" xlink:href="#M"/><use transform="matrix(0.06172839506172839,0,0,0.06172839506172839,12.345679012345679,0)" xlink:href="#N"/><use transform="matrix(0.06172839506172839,0,0,0.06172839506172839,17.22222222222222,0)" xlink:href="#O"/><use transform="matrix(0.06172839506172839,0,0,0.06172839506172839,28.333333333333332,0)" xlink:href="#C"/><use transform="matrix(0.06172839506172839,0,0,0.06172839506172839,34.50617283950617,0)" xlink:href="#D"/><use transform="matrix(0.06172839506172839,0,0,0.06172839506172839,46.85185185185185,0)" xlink:href="#B"/><use transform="matrix(0.06172839506172839,0,0,0.06172839506172839,59.197530864197525,0)" xlink:href="#D"/><use transform="matrix(0.06172839506172839,0,0,0.06172839506172839,71.5432098765432,0)" xlink:href="#E"/></g><path fill="#333" d="M187 0l-14-72H61L19 0h-37l149-248h38L221 0h-34zm-19-99l-22-123L76-99h92" id="P"/><path fill="#333" d="M44-68c0 29 11 47 38 47 30 0 42-19 51-41l28 9C148-21 126 4 82 4 31 4 10-29 12-85c3-77 74-140 146-93 12 8 15 23 18 40l-31 5c-1-22-13-36-36-36-52 0-65 49-65 101" id="Q"/><path fill="#333" d="M51-54c-9 22 5 41 31 30L79-1C43 14 10-4 19-52l22-115H19l5-23h22l19-43h21l-9 43h35l-4 23H73" id="R"/><path fill="#333" d="M30-147c31-64 166-65 159 27C183-49 158 1 86 4 9 8 1-88 30-147zM88-20c53 0 68-48 68-100 0-31-11-51-44-50-52 1-68 46-68 97 0 32 13 53 44 53" id="S"/><path fill="#333" d="M66-151c12-25 30-51 66-40l-6 26C45-176 58-65 38 0H6l36-190h30" id="T"/><g id="d"><use transform="matrix(0.04938271604938272,0,0,0.04938271604938272,0,0)" xlink:href="#P"/><use transform="matrix(0.04938271604938272,0,0,0.04938271604938272,11.851851851851853,0)" xlink:href="#Q"/><use transform="matrix(0.04938271604938272,0,0,0.04938271604938272,20.74074074074074,0)" xlink:href="#R"/><use transform="matrix(0.04938271604938272,0,0,0.04938271604938272,25.679012345679016,0)" xlink:href="#S"/><use transform="matrix(0.04938271604938272,0,0,0.04938271604938272,35.55555555555556,0)" xlink:href="#T"/></g><path fill="#333" d="M85-194c31 0 48 13 60 33l-1-100h32l1 261h-30c-2-10 0-23-3-31C134-8 116 4 85 4 32 4 16-35 15-94c0-66 23-100 70-100zm9 24c-40 0-46 34-46 75 0 40 6 74 45 74 42 0 51-32 51-76 0-42-9-74-50-73" id="U"/><path fill="#333" d="M212-179c-10-28-35-45-73-45-59 0-87 40-87 99 0 60 29 101 89 101 43 0 62-24 78-52l27 14C228-24 195 4 139 4 59 4 22-46 18-125c-6-104 99-153 187-111 19 9 31 26 39 46" id="V"/><path fill="#333" d="M177-190C167-65 218 103 67 71c-23-6-38-20-44-43l32-5c15 47 100 32 89-28v-30C133-14 115 1 83 1 29 1 15-40 15-95c0-56 16-97 71-98 29-1 48 16 59 35 1-10 0-23 2-32h30zM94-22c36 0 50-32 50-73 0-42-14-75-50-75-39 0-46 34-46 75s6 73 46 73" id="W"/><path fill="#333" d="M87 75C49 33 22-17 22-94c0-76 28-126 65-167h31c-38 41-64 92-64 168S80 34 118 75H87" id="X"/><path fill="#333" d="M33-261c38 41 65 92 65 168S71 34 33 75H2C39 34 66-17 66-93S39-220 2-261h31" id="Y"/><g id="e"><use transform="matrix(0.05,0,0,0.05,0,0)" xlink:href="#K"/><use transform="matrix(0.05,0,0,0.05,3.95,0)" xlink:href="#L"/><use transform="matrix(0.05,0,0,0.05,13.949999999999998,0)" xlink:href="#G"/><use transform="matrix(0.05,0,0,0.05,23.95,0)" xlink:href="#U"/><use transform="matrix(0.05,0,0,0.05,33.95,0)" xlink:href="#V"/><use transform="matrix(0.05,0,0,0.05,46.900000000000006,0)" xlink:href="#L"/><use transform="matrix(0.05,0,0,0.05,56.900000000000006,0)" xlink:href="#B"/><use transform="matrix(0.05,0,0,0.05,66.9,0)" xlink:href="#F"/><use transform="matrix(0.05,0,0,0.05,71.9,0)" xlink:href="#N"/><use transform="matrix(0.05,0,0,0.05,75.85000000000001,0)" xlink:href="#W"/><use transform="matrix(0.05,0,0,0.05,85.85000000000001,0)" xlink:href="#X"/><use transform="matrix(0.05,0,0,0.05,91.80000000000001,0)" xlink:href="#Y"/></g><path fill="#333" d="M160-131c35 5 61 23 61 61C221 17 115-2 30 0v-248c76 3 177-17 177 60 0 33-19 50-47 57zm-97-11c50-1 110 9 110-42 0-47-63-36-110-37v79zm0 115c55-2 124 14 124-45 0-56-70-42-124-44v89" id="Z"/><path fill="#333" d="M106-169C34-169 62-67 57 0H25v-261h32l-1 103c12-21 28-36 61-36 89 0 53 116 60 194h-32v-121c2-32-8-49-39-48" id="aa"/><path fill="#333" d="M210-169c-67 3-38 105-44 169h-31v-121c0-29-5-50-35-48C34-165 62-65 56 0H25l-1-190h30c1 10-1 24 2 32 10-44 99-50 107 0 11-21 27-35 58-36 85-2 47 119 55 194h-31v-121c0-29-5-49-35-48" id="ab"/><g id="f"><use transform="matrix(0.06172839506172839,0,0,0.06172839506172839,0,0)" xlink:href="#Z"/><use transform="matrix(0.06172839506172839,0,0,0.06172839506172839,14.814814814814813,0)" xlink:href="#D"/><use transform="matrix(0.06172839506172839,0,0,0.06172839506172839,27.160493827160494,0)" xlink:href="#B"/><use transform="matrix(0.06172839506172839,0,0,0.06172839506172839,39.50617283950617,0)" xlink:href="#H"/><use transform="matrix(0.06172839506172839,0,0,0.06172839506172839,50.61728395061728,0)" xlink:href="#aa"/><use transform="matrix(0.06172839506172839,0,0,0.06172839506172839,62.962962962962955,0)" xlink:href="#ab"/><use transform="matrix(0.06172839506172839,0,0,0.06172839506172839,81.41975308641975,0)" xlink:href="#G"/><use transform="matrix(0.06172839506172839,0,0,0.06172839506172839,93.76543209876543,0)" xlink:href="#E"/><use transform="matrix(0.06172839506172839,0,0,0.06172839506172839,101.11111111111111,0)" xlink:href="#J"/><use transform="matrix(0.06172839506172839,0,0,0.06172839506172839,112.22222222222223,0)" xlink:href="#N"/><use transform="matrix(0.06172839506172839,0,0,0.06172839506172839,117.09876543209877,0)" xlink:href="#B"/><use transform="matrix(0.06172839506172839,0,0,0.06172839506172839,129.44444444444446,0)" xlink:href="#W"/></g><path fill="#333" d="M84 4C-5 8 30-112 23-190h32v120c0 31 7 50 39 49 72-2 45-101 50-169h31l1 190h-30c-1-10 1-25-2-33-11 22-28 36-60 37" id="ac"/><g id="g"><use transform="matrix(0.06172839506172839,0,0,0.06172839506172839,0,0)" xlink:href="#I"/><use transform="matrix(0.06172839506172839,0,0,0.06172839506172839,14.814814814814813,0)" xlink:href="#ac"/><use transform="matrix(0.06172839506172839,0,0,0.06172839506172839,27.160493827160494,0)" xlink:href="#N"/><use transform="matrix(0.06172839506172839,0,0,0.06172839506172839,32.03703703703704,0)" xlink:href="#C"/><use transform="matrix(0.06172839506172839,0,0,0.06172839506172839,38.20987654320988,0)" xlink:href="#D"/></g><path fill="#333" d="M115-194c53 0 69 39 70 98 0 66-23 100-70 100C84 3 66-7 56-30L54 0H23l1-261h32v101c10-23 28-34 59-34zm-8 174c40 0 45-34 45-75 0-40-5-75-45-74-42 0-51 32-51 76 0 43 10 73 51 73" id="ad"/><g id="h"><use transform="matrix(0.05,0,0,0.05,0,0)" xlink:href="#W"/><use transform="matrix(0.05,0,0,0.05,10,0)" xlink:href="#D"/><use transform="matrix(0.05,0,0,0.05,20,0)" xlink:href="#C"/><use transform="matrix(0.05,0,0,0.05,25,0)" xlink:href="#ad"/><use transform="matrix(0.05,0,0,0.05,35,0)" xlink:href="#D"/><use transform="matrix(0.05,0,0,0.05,45,0)" xlink:href="#B"/><use transform="matrix(0.05,0,0,0.05,55,0)" xlink:href="#H"/><use transform="matrix(0.05,0,0,0.05,64,0)" xlink:href="#aa"/><use transform="matrix(0.05,0,0,0.05,74,0)" xlink:href="#ab"/><use transform="matrix(0.05,0,0,0.05,88.95,0)" xlink:href="#G"/><use transform="matrix(0.05,0,0,0.05,98.95,0)" xlink:href="#E"/><use transform="matrix(0.05,0,0,0.05,104.9,0)" xlink:href="#J"/><use transform="matrix(0.05,0,0,0.05,113.9,0)" xlink:href="#V"/><use transform="matrix(0.05,0,0,0.05,126.85000000000001,0)" xlink:href="#L"/><use transform="matrix(0.05,0,0,0.05,136.85000000000002,0)" xlink:href="#B"/><use transform="matrix(0.05,0,0,0.05,146.85000000000002,0)" xlink:href="#F"/><use transform="matrix(0.05,0,0,0.05,151.85000000000002,0)" xlink:href="#N"/><use transform="matrix(0.05,0,0,0.05,155.8,0)" xlink:href="#W"/><use transform="matrix(0.05,0,0,0.05,165.8,0)" xlink:href="#X"/><use transform="matrix(0.05,0,0,0.05,171.75,0)" xlink:href="#Y"/></g><g id="i"><use transform="matrix(0.06172839506172839,0,0,0.06172839506172839,0,0)" xlink:href="#Z"/><use transform="matrix(0.06172839506172839,0,0,0.06172839506172839,14.814814814814813,0)" xlink:href="#D"/><use transform="matrix(0.06172839506172839,0,0,0.06172839506172839,27.160493827160494,0)" xlink:href="#B"/><use transform="matrix(0.06172839506172839,0,0,0.06172839506172839,39.50617283950617,0)" xlink:href="#H"/><use transform="matrix(0.06172839506172839,0,0,0.06172839506172839,50.61728395061728,0)" xlink:href="#aa"/><use transform="matrix(0.06172839506172839,0,0,0.06172839506172839,62.962962962962955,0)" xlink:href="#ab"/><use transform="matrix(0.06172839506172839,0,0,0.06172839506172839,81.41975308641975,0)" xlink:href="#G"/><use transform="matrix(0.06172839506172839,0,0,0.06172839506172839,93.76543209876543,0)" xlink:href="#E"/><use transform="matrix(0.06172839506172839,0,0,0.06172839506172839,101.11111111111111,0)" xlink:href="#J"/></g><path fill="#333" d="M266 0h-40l-56-210L115 0H75L2-248h35L96-30l15-64 43-154h32l59 218 59-218h35" id="ae"/><path fill="#333" d="M115-194c55 1 70 41 70 98S169 2 115 4C84 4 66-9 55-30l1 105H24l-1-265h31l2 30c10-21 28-34 59-34zm-8 174c40 0 45-34 45-75s-6-73-45-74c-42 0-51 32-51 76 0 43 10 73 51 73" id="af"/><g id="j"><use transform="matrix(0.06172839506172839,0,0,0.06172839506172839,0,0)" xlink:href="#ae"/><use transform="matrix(0.06172839506172839,0,0,0.06172839506172839,20.493827160493826,0)" xlink:href="#E"/><use transform="matrix(0.06172839506172839,0,0,0.06172839506172839,27.839506172839506,0)" xlink:href="#G"/><use transform="matrix(0.06172839506172839,0,0,0.06172839506172839,40.18518518518518,0)" xlink:href="#af"/><use transform="matrix(0.06172839506172839,0,0,0.06172839506172839,52.53086419753086,0)" xlink:href="#af"/><use transform="matrix(0.06172839506172839,0,0,0.06172839506172839,64.87654320987654,0)" xlink:href="#D"/><use transform="matrix(0.06172839506172839,0,0,0.06172839506172839,77.22222222222223,0)" xlink:href="#E"/></g><g id="k"><use transform="matrix(0.05,0,0,0.05,0,0)" xlink:href="#W"/><use transform="matrix(0.05,0,0,0.05,10,0)" xlink:href="#D"/><use transform="matrix(0.05,0,0,0.05,20,0)" xlink:href="#C"/><use transform="matrix(0.05,0,0,0.05,25,0)" xlink:href="#I"/><use transform="matrix(0.05,0,0,0.05,37,0)" xlink:href="#D"/><use transform="matrix(0.05,0,0,0.05,47,0)" xlink:href="#C"/><use transform="matrix(0.05,0,0,0.05,52,0)" xlink:href="#C"/><use transform="matrix(0.05,0,0,0.05,57,0)" xlink:href="#N"/><use transform="matrix(0.05,0,0,0.05,60.95,0)" xlink:href="#B"/><use transform="matrix(0.05,0,0,0.05,70.95,0)" xlink:href="#W"/><use transform="matrix(0.05,0,0,0.05,80.95,0)" xlink:href="#O"/><use transform="matrix(0.05,0,0,0.05,89.95,0)" xlink:href="#X"/><use transform="matrix(0.05,0,0,0.05,95.9,0)" xlink:href="#Y"/></g><path fill="#333" d="M30-248c87 1 191-15 191 75 0 78-77 80-158 76V0H30v-248zm33 125c57 0 124 11 124-50 0-59-68-47-124-48v98" id="ag"/><g id="l"><use transform="matrix(0.05,0,0,0.05,0,0)" xlink:href="#W"/><use transform="matrix(0.05,0,0,0.05,10,0)" xlink:href="#D"/><use transform="matrix(0.05,0,0,0.05,20,0)" xlink:href="#C"/><use transform="matrix(0.05,0,0,0.05,25,0)" xlink:href="#ag"/><use transform="matrix(0.05,0,0,0.05,37,0)" xlink:href="#E"/><use transform="matrix(0.05,0,0,0.05,42.95,0)" xlink:href="#D"/><use transform="matrix(0.05,0,0,0.05,52.95,0)" xlink:href="#O"/><use transform="matrix(0.05,0,0,0.05,61.95,0)" xlink:href="#D"/><use transform="matrix(0.05,0,0,0.05,71.95,0)" xlink:href="#C"/><use transform="matrix(0.05,0,0,0.05,76.95,0)" xlink:href="#O"/><use transform="matrix(0.05,0,0,0.05,85.95,0)" xlink:href="#X"/><use transform="matrix(0.05,0,0,0.05,91.9,0)" xlink:href="#Y"/></g><g id="m"><use transform="matrix(0.05,0,0,0.05,0,0)" xlink:href="#Z"/><use transform="matrix(0.05,0,0,0.05,12,0)" xlink:href="#D"/><use transform="matrix(0.05,0,0,0.05,22,0)" xlink:href="#B"/><use transform="matrix(0.05,0,0,0.05,32,0)" xlink:href="#H"/><use transform="matrix(0.05,0,0,0.05,41,0)" xlink:href="#aa"/><use transform="matrix(0.05,0,0,0.05,51,0)" xlink:href="#ab"/><use transform="matrix(0.05,0,0,0.05,65.95,0)" xlink:href="#G"/><use transform="matrix(0.05,0,0,0.05,75.95,0)" xlink:href="#E"/><use transform="matrix(0.05,0,0,0.05,81.9,0)" xlink:href="#J"/><use transform="matrix(0.05,0,0,0.05,90.9,0)" xlink:href="#ae"/><use transform="matrix(0.05,0,0,0.05,107.5,0)" xlink:href="#E"/><use transform="matrix(0.05,0,0,0.05,113.45,0)" xlink:href="#G"/><use transform="matrix(0.05,0,0,0.05,123.45,0)" xlink:href="#af"/><use transform="matrix(0.05,0,0,0.05,133.45000000000002,0)" xlink:href="#af"/><use transform="matrix(0.05,0,0,0.05,143.45000000000002,0)" xlink:href="#D"/><use transform="matrix(0.05,0,0,0.05,153.45000000000002,0)" xlink:href="#E"/></g><path fill="#333" d="M140-251c81 0 123 46 123 126C263-46 219 4 140 4 59 4 17-45 17-125s42-126 123-126zm0 227c63 0 89-41 89-101s-29-99-89-99c-61 0-89 39-89 99S79-25 140-24" id="ah"/><path fill="#333" d="M24-231v-30h32v30H24zM-9 49c24 4 33-6 33-30v-209h32V24c2 40-23 58-65 49V49" id="ai"/><g id="n"><use transform="matrix(0.05,0,0,0.05,0,0)" xlink:href="#ah"/><use transform="matrix(0.05,0,0,0.05,14,0)" xlink:href="#ad"/><use transform="matrix(0.05,0,0,0.05,24,0)" xlink:href="#ai"/><use transform="matrix(0.05,0,0,0.05,27.950000000000003,0)" xlink:href="#D"/><use transform="matrix(0.05,0,0,0.05,37.95,0)" xlink:href="#H"/><use transform="matrix(0.05,0,0,0.05,46.95,0)" xlink:href="#C"/></g><g id="o"><use transform="matrix(0.05,0,0,0.05,0,0)" xlink:href="#O"/><use transform="matrix(0.05,0,0,0.05,9,0)" xlink:href="#C"/><use transform="matrix(0.05,0,0,0.05,14,0)" xlink:href="#G"/><use transform="matrix(0.05,0,0,0.05,24,0)" xlink:href="#E"/><use transform="matrix(0.05,0,0,0.05,29.950000000000003,0)" xlink:href="#C"/><use transform="matrix(0.05,0,0,0.05,34.95,0)" xlink:href="#Z"/><use transform="matrix(0.05,0,0,0.05,46.95,0)" xlink:href="#D"/><use transform="matrix(0.05,0,0,0.05,56.95,0)" xlink:href="#B"/><use transform="matrix(0.05,0,0,0.05,66.95,0)" xlink:href="#H"/><use transform="matrix(0.05,0,0,0.05,75.95,0)" xlink:href="#aa"/><use transform="matrix(0.05,0,0,0.05,85.95,0)" xlink:href="#ab"/><use transform="matrix(0.05,0,0,0.05,100.9,0)" xlink:href="#G"/><use transform="matrix(0.05,0,0,0.05,110.9,0)" xlink:href="#E"/><use transform="matrix(0.05,0,0,0.05,116.85000000000001,0)" xlink:href="#J"/><use transform="matrix(0.05,0,0,0.05,125.85000000000001,0)" xlink:href="#X"/><use transform="matrix(0.05,0,0,0.05,131.8,0)" xlink:href="#Y"/></g><path fill="#333" d="M233-177c-1 41-23 64-60 70L243 0h-38l-65-103H63V0H30v-248c88 3 205-21 203 71zM63-129c60-2 137 13 137-47 0-61-80-42-137-45v92" id="aj"/><g id="p"><use transform="matrix(0.05,0,0,0.05,0,0)" xlink:href="#aj"/><use transform="matrix(0.05,0,0,0.05,12.950000000000001,0)" xlink:href="#ac"/><use transform="matrix(0.05,0,0,0.05,22.950000000000003,0)" xlink:href="#B"/><use transform="matrix(0.05,0,0,0.05,32.95,0)" xlink:href="#C"/><use transform="matrix(0.05,0,0,0.05,37.95,0)" xlink:href="#N"/><use transform="matrix(0.05,0,0,0.05,41.900000000000006,0)" xlink:href="#ab"/><use transform="matrix(0.05,0,0,0.05,56.85,0)" xlink:href="#D"/></g><g id="q"><use transform="matrix(0.05,0,0,0.05,0,0)" xlink:href="#A"/><use transform="matrix(0.05,0,0,0.05,5,0)" xlink:href="#B"/><use transform="matrix(0.05,0,0,0.05,15,0)" xlink:href="#F"/><use transform="matrix(0.05,0,0,0.05,20,0)" xlink:href="#L"/><use transform="matrix(0.05,0,0,0.05,30,0)" xlink:href="#E"/><use transform="matrix(0.05,0,0,0.05,35.95,0)" xlink:href="#ab"/><use transform="matrix(0.05,0,0,0.05,50.900000000000006,0)" xlink:href="#G"/><use transform="matrix(0.05,0,0,0.05,60.900000000000006,0)" xlink:href="#C"/><use transform="matrix(0.05,0,0,0.05,65.9,0)" xlink:href="#N"/><use transform="matrix(0.05,0,0,0.05,69.85000000000001,0)" xlink:href="#L"/><use transform="matrix(0.05,0,0,0.05,79.85000000000001,0)" xlink:href="#B"/></g><g id="r"><use transform="matrix(0.05,0,0,0.05,0,0)" xlink:href="#ac"/><use transform="matrix(0.05,0,0,0.05,10,0)" xlink:href="#O"/><use transform="matrix(0.05,0,0,0.05,19,0)" xlink:href="#N"/><use transform="matrix(0.05,0,0,0.05,22.95,0)" xlink:href="#B"/><use transform="matrix(0.05,0,0,0.05,32.95,0)" xlink:href="#W"/></g><path fill="#333" d="M205 0l-28-72H64L36 0H1l101-248h38L239 0h-34zm-38-99l-47-123c-12 45-31 82-46 123h93" id="ak"/><g id="s"><use transform="matrix(0.05,0,0,0.05,0,0)" xlink:href="#ak"/><use transform="matrix(0.05,0,0,0.05,12,0)" xlink:href="#ag"/><use transform="matrix(0.05,0,0,0.05,24,0)" xlink:href="#A"/></g><g id="t"><use transform="matrix(0.05,0,0,0.05,0,0)" xlink:href="#V"/><use transform="matrix(0.05,0,0,0.05,12.950000000000001,0)" xlink:href="#G"/><use transform="matrix(0.05,0,0,0.05,22.950000000000003,0)" xlink:href="#K"/><use transform="matrix(0.05,0,0,0.05,26.900000000000002,0)" xlink:href="#K"/><use transform="matrix(0.05,0,0,0.05,30.85,0)" xlink:href="#O"/></g><g id="u"><use transform="matrix(0.05,0,0,0.05,0,0)" xlink:href="#K"/><use transform="matrix(0.05,0,0,0.05,3.95,0)" xlink:href="#L"/><use transform="matrix(0.05,0,0,0.05,13.949999999999998,0)" xlink:href="#W"/><use transform="matrix(0.05,0,0,0.05,23.95,0)" xlink:href="#W"/><use transform="matrix(0.05,0,0,0.05,33.95,0)" xlink:href="#D"/><use transform="matrix(0.05,0,0,0.05,43.95,0)" xlink:href="#E"/><use transform="matrix(0.05,0,0,0.05,49.900000000000006,0)" xlink:href="#M"/><use transform="matrix(0.05,0,0,0.05,59.900000000000006,0)" xlink:href="#N"/><use transform="matrix(0.05,0,0,0.05,63.85,0)" xlink:href="#O"/><use transform="matrix(0.05,0,0,0.05,72.85000000000001,0)" xlink:href="#C"/><use transform="matrix(0.05,0,0,0.05,77.85000000000001,0)" xlink:href="#D"/><use transform="matrix(0.05,0,0,0.05,87.85000000000001,0)" xlink:href="#B"/><use transform="matrix(0.05,0,0,0.05,97.85000000000001,0)" xlink:href="#D"/><use transform="matrix(0.05,0,0,0.05,107.85000000000001,0)" xlink:href="#E"/><use transform="matrix(0.05,0,0,0.05,113.80000000000001,0)" xlink:href="#X"/><use transform="matrix(0.05,0,0,0.05,119.75,0)" xlink:href="#Y"/></g><g id="v"><use transform="matrix(0.05,0,0,0.05,0,0)" xlink:href="#O"/><use transform="matrix(0.05,0,0,0.05,9,0)" xlink:href="#C"/><use transform="matrix(0.05,0,0,0.05,14,0)" xlink:href="#L"/><use transform="matrix(0.05,0,0,0.05,24,0)" xlink:href="#af"/><use transform="matrix(0.05,0,0,0.05,34,0)" xlink:href="#Z"/><use transform="matrix(0.05,0,0,0.05,46,0)" xlink:href="#D"/><use transform="matrix(0.05,0,0,0.05,56,0)" xlink:href="#B"/><use transform="matrix(0.05,0,0,0.05,66,0)" xlink:href="#H"/><use transform="matrix(0.05,0,0,0.05,75,0)" xlink:href="#aa"/><use transform="matrix(0.05,0,0,0.05,85,0)" xlink:href="#ab"/><use transform="matrix(0.05,0,0,0.05,99.95,0)" xlink:href="#G"/><use transform="matrix(0.05,0,0,0.05,109.95,0)" xlink:href="#E"/><use transform="matrix(0.05,0,0,0.05,115.9,0)" xlink:href="#J"/><use transform="matrix(0.05,0,0,0.05,124.9,0)" xlink:href="#X"/><use transform="matrix(0.05,0,0,0.05,130.85,0)" xlink:href="#Y"/></g><path fill="#333" d="M179-190L93 31C79 59 56 82 12 73V49c39 6 53-20 64-50L1-190h34L92-34l54-156h33" id="al"/><g id="w"><use transform="matrix(0.05,0,0,0.05,0,0)" xlink:href="#U"/><use transform="matrix(0.05,0,0,0.05,10,0)" xlink:href="#N"/><use transform="matrix(0.05,0,0,0.05,13.949999999999998,0)" xlink:href="#O"/><use transform="matrix(0.05,0,0,0.05,22.95,0)" xlink:href="#af"/><use transform="matrix(0.05,0,0,0.05,32.95,0)" xlink:href="#K"/><use transform="matrix(0.05,0,0,0.05,36.900000000000006,0)" xlink:href="#G"/><use transform="matrix(0.05,0,0,0.05,46.900000000000006,0)" xlink:href="#al"/></g><g id="x"><use transform="matrix(0.05,0,0,0.05,0,0)" xlink:href="#N"/><use transform="matrix(0.05,0,0,0.05,3.95,0)" xlink:href="#B"/><use transform="matrix(0.05,0,0,0.05,13.949999999999998,0)" xlink:href="#F"/><use transform="matrix(0.05,0,0,0.05,18.95,0)" xlink:href="#L"/></g><g id="y"><use transform="matrix(0.05,0,0,0.05,0,0)" xlink:href="#C"/><use transform="matrix(0.05,0,0,0.05,5,0)" xlink:href="#L"/></g><g id="z"><use transform="matrix(0.05,0,0,0.05,0,0)" xlink:href="#ac"/><use transform="matrix(0.05,0,0,0.05,10,0)" xlink:href="#O"/><use transform="matrix(0.05,0,0,0.05,19,0)" xlink:href="#D"/><use transform="matrix(0.05,0,0,0.05,29,0)" xlink:href="#E"/></g></defs></g></svg>